<svg xmlns="http://www.w3.org/2000/svg" xmlns:xlink="http://www.w3.org/1999/xlink" width="148.376" height="87.412" viewBox="0 0 148.376 87.412">
  <defs>
    <radialGradient id="radial-gradient" cx="0.497" cy="0.191" r="0.735" gradientTransform="translate(0.135) scale(0.729 1)" gradientUnits="objectBoundingBox">
      <stop offset="0.092" stop-color="#e60019"/>
      <stop offset="0.263" stop-color="#cb0317"/>
      <stop offset="0.898" stop-color="#6a1211"/>
    </radialGradient>
  </defs>
  <g id="Group_183" data-name="Group 183" transform="translate(-172.42 -144.035)">
    <g id="Group_75" data-name="Group 75" transform="translate(214.874 193.188)">
      <path id="Path_25" data-name="Path 25" d="M513.733,337.215h-6.661V310.724h8.818c6.887.038,10.18,4.844,10.1,9.612-.076,4.73-3.482,9.385-10.066,9.385h-2.195Zm5.752-16.841c.038-2.006-1.135-4.011-3.6-4.011h-2.271v7.985h2.271C518.236,324.348,519.447,322.38,519.485,320.374Z" transform="translate(-449.629 -310.119)" fill="#1a1818"/>
      <path id="Path_26" data-name="Path 26" d="M604.868,314.41l-4.617,3.368c-4.655-5.525-13.548-3.33-13.548,4.806,0,3.633,2.5,7.682,6.963,7.682,2.5,0,5.979-.644,6.623-4.314H590.261v-5.411h16.311a19.658,19.658,0,0,1,.113,2.006c0,8.78-5.336,13.7-13.132,13.7-8.818,0-13.548-6.774-13.586-13.661,0-7.039,4.768-13.889,13.586-13.889C598.094,308.7,601.349,310.058,604.868,314.41Z" transform="translate(-500.764 -308.696)" fill="#1a1818"/>
      <path id="Path_27" data-name="Path 27" d="M332.464,309.838h-8.779l-9.045,26.757h7.19l2-6.476h8.443l2.114,6.476h7.232Zm-6.854,14.267,1.666-5.713.833-2.863.777,2.786.014.077,1.6,5.713Z" transform="translate(-314.64 -309.497)" fill="#1a1818"/>
      <path id="Path_28" data-name="Path 28" d="M427.308,310.588v17.894l-1.61-3.332-7.057-14.561h-8.926v26.533h6.77V320.088l1.2,2.562,6.819,14.471h9.5V310.588Z" transform="translate(-381.334 -310.023)" fill="#1a1818"/>
    </g>
    <path id="Path_29" data-name="Path 29" d="M243.5,191.756a2.706,2.706,0,0,1-.791,1.911L209.866,226.5a2.69,2.69,0,0,1-3.815,0l-32.844-32.836a2.714,2.714,0,0,1,0-3.823,49.159,49.159,0,0,1,69.5,0A2.706,2.706,0,0,1,243.5,191.756Z" transform="translate(0 -22.041)" fill="url(#radial-gradient)"/>
    <g id="Group_76" data-name="Group 76" transform="translate(191.614 144.035)">
      <path id="Path_30" data-name="Path 30" d="M248.631,187.3s-3.189-6.486,3.419-13.546c3.65-3.9,5.907-6.017,7.466-8.326,2.429-3.6,3.742-8.412,2.476-12.646a16.365,16.365,0,0,0-.625-1.722,25.086,25.086,0,0,0-4.7-7.02s-15.584,12.649-18.63,19.438S236.732,178.922,248.631,187.3Z" transform="translate(-236.718 -144.035)" fill="#fff"/>
      <path id="Path_31" data-name="Path 31" d="M285.077,165.443c2.429-3.6,3.742-8.412,2.476-12.647a16.36,16.36,0,0,0-.625-1.722,25.088,25.088,0,0,0-4.7-7.012h0l.712,1.422c.229.47.46.931.679,1.394.441.924.853,1.841,1.222,2.754a27.308,27.308,0,0,1,.953,2.729c.064.226.123.452.179.677.027.113.056.227.073.335l.064.326.033.162a1.421,1.421,0,0,1,.028.164l.045.33c.014.11.032.219.045.329l.026.333a14.86,14.86,0,0,1-.627,5.4l-.21.667c-.072.222-.163.439-.238.661q-.248.658-.548,1.3c-.093.217-.2.425-.312.636-.054.1-.1.213-.161.316l-.173.309-.173.31-.184.3c-.059.1-.126.2-.19.3s-.127.2-.2.3c-.539.8-1.149,1.6-1.787,2.393s-1.305,1.58-1.972,2.372q-.5.6-1.007,1.185L277.5,172.66l-.505.595-.51.625c-.165.213-.323.431-.484.646-.082.106-.155.22-.231.331l-.226.334a15.7,15.7,0,0,0-1.491,2.859,13.239,13.239,0,0,0-.8,3.109,11.641,11.641,0,0,0,.025,3.173,11.142,11.142,0,0,0,.339,1.537,7.965,7.965,0,0,0,.549,1.389c-.288-.642-2.809-6.809,3.445-13.49C281.26,169.868,283.517,167.752,285.077,165.443Z" transform="translate(-262.279 -144.054)" fill="#f39f22"/>
      <path id="Path_32" data-name="Path 32" d="M297.745,227.506a14.512,14.512,0,0,0,2.021-5.361c.062-.45.1-.916.125-1.4.195-6.634-5.378-10.822-5.378-10.822s-2.093,2.182-7.191,7.485a29.984,29.984,0,0,0-6.724,10.341c-2.228,7.743,5.05,13.631,5.051,13.631C286.736,235.365,294.033,233.119,297.745,227.506Z" transform="translate(-267.202 -190.253)" fill="#fff"/>
      <path id="Path_33" data-name="Path 33" d="M312.388,220.757c-.019.486-.063.953-.124,1.4a14.519,14.519,0,0,1-2.021,5.361c-3.712,5.612-11.007,7.858-12.1,13.871h0a6.32,6.32,0,0,1-.122-.651c-.01-.11-.015-.219-.023-.33a2.8,2.8,0,0,1-.009-.335,6.367,6.367,0,0,1,.156-1.34,8.683,8.683,0,0,1,1.02-2.51,13.176,13.176,0,0,1,1.574-2.11,21.356,21.356,0,0,1,1.792-1.75c1.228-1.073,2.464-2.008,3.633-2.944.587-.467,1.155-.935,1.7-1.424l.4-.373c.133-.125.259-.255.39-.383.069-.066.123-.126.184-.189l.182-.188a2.305,2.305,0,0,0,.172-.2c.056-.07.11-.13.167-.207a14.254,14.254,0,0,0,1.252-1.873c.179-.331.35-.669.5-1.016a10.938,10.938,0,0,0,.384-1.068c.028-.091.056-.182.077-.272s.048-.18.069-.271c.043-.187.078-.376.112-.565s.059-.381.083-.573.028-.377.044-.566a11.141,11.141,0,0,0-.122-2.306,12.071,12.071,0,0,0-.613-2.26l-.106-.275-.117-.272c-.076-.182-.163-.359-.248-.537s-.18-.352-.27-.529-.19-.348-.3-.516c-.2-.341-.427-.67-.656-1s-.479-.636-.736-.942-.528-.6-.812-.88c-.141-.141-.285-.28-.434-.413s-.3-.265-.456-.387l0,0C307.239,210.11,312.579,214.26,312.388,220.757Z" transform="translate(-279.699 -190.267)" fill="#f39f22"/>
    </g>
    <text id="AGÊNCIA_NACIONAL_DE_PETRÓLEO_GÁS_E_BIOCOMBUSTÍVEIS_" data-name="AGÊNCIA NACIONAL DE PETRÓLEO, GÁS
E BIOCOMBUSTÍVEIS " transform="translate(256.372 226.447)" fill="#1a1818" font-size="4" font-family="SegoeUI, Segoe UI"><tspan x="-36.053" y="0">AGÊNCIA NACIONAL DE PETRÓLEO, GÁS</tspan><tspan x="-18.794" y="4">E BIOCOMBUSTÍVEIS </tspan></text>
  </g>
</svg>