<svg xmlns="http://www.w3.org/2000/svg" viewBox="0 0 23.17 23.17"><defs><style>.cls-1{fill:#808285;}</style></defs><title>Recurso 33</title><g id="Capa_2" data-name="Capa 2"><g id="Dados_E_P" data-name="Dados E&amp;P"><path class="cls-1" d="M11.58,23.17A11.59,11.59,0,1,1,23.17,11.58,11.58,11.58,0,0,1,11.58,23.17ZM18,10.5,10.68,4.7A1.42,1.42,0,0,0,8.92,6.93l5.91,4.68-5.9,4.63a1.42,1.42,0,0,0,.87,2.54,1.39,1.39,0,0,0,.88-.31L18,12.73a1.42,1.42,0,0,0,.54-1.11A1.44,1.44,0,0,0,18,10.5Z"/></g></g></svg>