<svg xmlns="http://www.w3.org/2000/svg" viewBox="0 0 23.17 23.17"><defs><style>.cls-1{fill:#808285;}</style></defs><title>Recurso 32</title><g id="Capa_2" data-name="Capa 2"><g id="Dados_E_P" data-name="Dados E&amp;P"><path class="cls-1" d="M11.58,23.17A11.59,11.59,0,1,0,0,11.58,11.59,11.59,0,0,0,11.58,23.17ZM5.16,10.5l7.32-5.8a1.42,1.42,0,0,1,1.76,2.23L8.33,11.61l5.91,4.63a1.42,1.42,0,0,1-.88,2.54,1.38,1.38,0,0,1-.87-.31L5.17,12.73a1.46,1.46,0,0,1-.55-1.11A1.44,1.44,0,0,1,5.16,10.5Z"/></g></g></svg>