<?xml version="1.0" encoding="utf-8"?>
<!-- Generator: Adobe Illustrator 24.1.2, SVG Export Plug-In . SVG Version: 6.00 Build 0)  -->
<svg version="1.1" id="Layer_1" xmlns="http://www.w3.org/2000/svg" xmlns:xlink="http://www.w3.org/1999/xlink" x="0px" y="0px"
	 viewBox="0 0 20.4 20" style="enable-background:new 0 0 20.4 20;" xml:space="preserve">
<style type="text/css">
	.st0{fill:#202020;}
</style>
<path class="st0" d="M17.6,2.3c-0.3,0-0.5,0-0.7,0c-0.1,0-0.2,0-0.1-0.1c0-0.2,0-0.3,0-0.5c0-0.1,0-0.2-0.2-0.2c-0.2,0-0.4,0-0.6,0
	V0.2h-1.7c0,0.1,0,0.2,0,0.4c0,0.1,0,0.2,0.2,0.2c0.2,0,0.5,0,0.7,0c0,0.5,0,0.9,0,1.4c0,0.2,0,0.2-0.2,0.2c-1.3,0-2.5,0-3.8,0
	c-0.1,0-0.1,0-0.2,0V1.5h-0.6V0.2H8.7v0.5h0.9v1.6h0.6v3.2H6.4V3.9H4.8V2.3H4.1V0.2H3.3v2.8H4v0.8H0.8V3.2H0v6.3h1.7v0.8H1v3.9h9.8
	v5.5h0.8v-2.5h7.6v2.5H20v-5.5h-0.7v-0.8h-0.8c0,0,0,0,0,0h1.6v-0.8h-1.7c0-0.1,0-0.2,0-0.2c0-0.6,0-1.3,0-1.9c0-0.2,0-0.2-0.2-0.2
	c-0.2,0-0.4,0-0.7,0v-1H16V8.6h-1.5V7.9h5.7V5.5h-1.9V3.9h1.9V3.1h-2.6V2.3z M0.8,8.7V4.7c1.6,0,3.2,0,4.8,0.1v1.6h0.9v1.5h1.5v0.9
	H0.8z M9.7,13.4H1.8v-2.3h0.7V9.6h5.6V11h1.6V13.4z M11.2,13.8c0-0.1,0-0.2,0-0.4h-0.7v-3.2H8.9V7H7.4V6.3h2.8V7h2v0.9h0.6
	c0.1,2.4,0,4.7,0.1,7.1h-1.3v-1.2C11.4,13.8,11.3,13.8,11.2,13.8z M15.2,9.4v0.7h1.5v0.9h0.8v3.2h0.9V15h0.7v1.4h-7.6v-0.7h2.1V8.7
	c0,0,0,0,0.1,0v0.7H15.2z M20,6.3v0.8h-7.1V6.2h-2V3.1h5.8v0.8h0.7v2.4H20z"/>
</svg>
