<svg xmlns="http://www.w3.org/2000/svg" xmlns:xlink="http://www.w3.org/1999/xlink" viewBox="0 0 55.67 129.43"><defs><style>.cls-1,.cls-3,.cls-5{fill:none;}.cls-2{clip-path:url(#clip-path);}.cls-3,.cls-5{stroke:#231f20;}.cls-3,.cls-4,.cls-5{stroke-miterlimit:10;stroke-width:0.82px;}.cls-4{fill:#e6e7e8;stroke:#f1f2f2;}.cls-5{stroke-dasharray:0.25;}</style><clipPath id="clip-path" transform="translate(8.18 25.95)"><rect class="cls-1" width="21.27" height="21.27"/></clipPath></defs><title>Recurso 28</title><g id="Capa_2" data-name="Capa 2"><g id="Dados_E_P" data-name="Dados E&amp;P"><g class="cls-2"><polygon class="cls-3" points="31.94 21.01 31.94 16.97 30.53 17.37 31.4 17.88 31.41 18.44 29.85 18.67 29.99 18.03 29.29 18.47 29.22 19.15 30.7 21.01 31.94 21.01"/><polygon class="cls-3" points="31.58 23.06 33.56 23.06 33.56 21.01 30.81 21.21 31.58 23.06"/><polygon class="cls-3" points="37.06 18.78 34.51 18.78 34.55 21.01 36.54 21.01 37.06 19.9 37.15 19.45 37.63 19.45 37.63 19.07 37.04 18.99 37.06 18.78"/><polygon class="cls-4" points="39.04 46.3 39.04 46.73 38.64 47.05 38.49 47.44 38.49 50.83 38.83 51.89 39.04 52.05 44.27 52.13 44.27 46.3 39.04 46.3"/><rect class="cls-4" x="44.23" y="54.93" width="2.96" height="5.86"/><path class="cls-3" d="M16.44-9.4H5.4v-1l13.32-9.82.39-1.25.33-.29v.57h.78a9.35,9.35,0,0,1,1.47-2c.39-.18,1.39-.14,1.53-.36s.25-.68.54-.75.82.29.85,0-.42-.61-.32-.78,0-.5.33-.47.49.54.49.54l1-.18v.53a4.31,4.31,0,0,1,.93.9c.14.32.32.6.53.64a3.1,3.1,0,0,1,.75.46,10.71,10.71,0,0,1-1.39.33c-.43,0-1.21.21-1.25.42a.77.77,0,0,1-.39.54c-.22.11-.18.36-.22.61s-.64.32-.75.5a1.89,1.89,0,0,0-.1.64l-.82-.11s.14.5,0,.64a2,2,0,0,1-.77.43c-.3.07-.77,0-.8.15s-.22.14.18.39a1.73,1.73,0,0,0,.62.28v5.9a19.64,19.64,0,0,0-2.84,0A25.27,25.27,0,0,0,16.44-9.4Z" transform="translate(8.18 25.95)"/><path class="cls-3" d="M15.33-9.4l-.46-.53H14a1.6,1.6,0,0,1-1.18-.65,1.56,1.56,0,0,1-.36-1c0-.43.68-1.89.72-2.35a12.32,12.32,0,0,0-.34-2" transform="translate(8.18 25.95)"/><line class="cls-3" x1="29.45" y1="3.18" x2="31.61" y2="6.23"/><polyline class="cls-3" points="27.8 9.05 28.11 9.05 28.11 7.94 30.19 7.84"/><line class="cls-3" x1="28.64" y1="11.34" x2="30.81" y2="11.34"/><path class="cls-3" d="M8.76,103.08v-9h.71V92.36h.83V87.44h.78V83.22h.64v-1.5h.79V79.83h.75V78.19h.82V77.3h.75V75.76h.93V70.69h.53V69.9h.83v-.82h.82V68.3h1V60.66h.64V53.23h4.9v-.82h.75V44H26V42.34h-.75v-.86h-1v-.72h-2.5V40H19.4V28.13h-1v-.82h-1V24.06h.93v-.9h.82v-.78h.79v-.82h.82V15.7H20v-.85h-.93V11.52h-.89v-1H16.58V9.78H14.94V9H14V8.2h-.67V7.28H11.26v-5h-.64V.6H9.69V-.15H8.76V-1.76H8.08v-1.6H7.15V-5.94H6.23s0-1.67,0-1.67H5.4V-8.9" transform="translate(8.18 25.95)"/><polyline class="cls-3" points="20.05 129.02 20.05 120.81 20.87 120.81 20.87 119.2 21.62 119.2 21.62 116.7 22.47 116.7 22.47 114.2 23.19 114.2 23.19 111.63 24.83 111.63 24.83 109.17 25.62 109.17 25.62 107.6 26.33 107.6 26.33 105.85 27.08 105.85 27.08 104.1 27.86 104.1 27.86 95 30.22 95 30.22 91.64 31.08 91.64 31.08 89.17 31.79 89.17 31.79 88.35 32.69 88.35 32.69 87.5 33.47 87.5 33.47 85.78 34.22 85.78 34.22 84.14 35.04 84.14 35.04 83.32 35.83 83.32 35.83 82.43 36.54 82.43 36.54 81.68 37.51 81.68 37.51 79.96 38.33 79.96 38.33 79.11 39.08 79.11 39.08 64.11 37.4 64.11 37.4 62.36 35.69 62.36 35.69 60.75 34.9 60.75 34.9 57.47 32.33 57.47 32.33 46.54 33.11 46.54 33.11 37.4 32.19 37.4 32.19 35.8 31.4 35.8 31.4 34.12 30.61 34.12 30.61 33.33 29.79 33.33 29.79 32.47 27.15 32.47 27.15 29.94 26.37 29.94 26.37 29.12 25.47 29.12 25.47 28.3 24.65 28.3 24.65 26.62 23.72 26.62 23.72 24.98 23.01 24.98 23.01 23.3 22.08 23.3 22.08 21.62 21.22 21.62 21.22 19.98 20.44 19.98 20.44 17.05"/><line class="cls-3" x1="20.05" y1="40.79" x2="20.05" y2="65.9"/><polyline class="cls-3" points="9.44 17.05 9.44 19.91 10.37 19.91 10.37 22.44 11.23 22.44 11.23 24.94 12.15 24.94 12.15 29.05 12.9 29.05 12.9 30.8 14.65 30.8 14.65 32.47 15.62 32.47 15.62 34.05 17.23 34.05 17.23 37.4 18.94 37.4 18.94 40.79"/><polyline class="cls-3" points="5.26 17.05 5.26 19.94 6.26 19.94 6.26 23.33 7.05 23.33 7.05 30.05 8.73 30.05 8.73 35.87 10.51 35.87 10.51 37.55 9.73 37.55 9.73 40.79 20.05 40.79"/><line class="cls-3" x1="6.26" y1="20.8" x2="10.37" y2="20.8"/><line class="cls-3" x1="7.05" y1="24.94" x2="11.23" y2="24.94"/><line class="cls-3" x1="8.73" y1="30.76" x2="12.9" y2="30.76"/><line class="cls-3" x1="10.51" y1="35.87" x2="17.23" y2="35.87"/><line class="cls-3" x1="15.62" y1="32.47" x2="19.44" y2="32.47"/><line class="cls-3" x1="12.15" y1="25.65" x2="16.94" y2="25.65"/><line class="cls-3" x1="16.26" y1="22.58" x2="22.08" y2="22.58"/><line class="cls-3" x1="26.19" y1="17.05" x2="26.19" y2="23.23"/><line class="cls-3" x1="19.44" y1="29.12" x2="25.47" y2="29.12"/><path class="cls-3" d="M14,8.2l14,0v0" transform="translate(8.18 25.95)"/><line class="cls-3" x1="27.26" y1="39.94" x2="33.11" y2="39.94"/><line class="cls-3" x1="20.05" y1="44.01" x2="28.94" y2="44.01"/><line class="cls-3" x1="33.11" y1="42.44" x2="40.39" y2="42.44"/><polyline class="cls-3" points="22.22 34.97 22.22 42.44 20.05 42.44"/><polyline class="cls-3" points="20.05 48.19 23.9 48.19 23.9 49.11 32.33 49.11"/><line class="cls-3" x1="20.05" y1="54.93" x2="27.58" y2="54.93"/><line class="cls-3" x1="27.58" y1="55.75" x2="32.33" y2="55.75"/><line class="cls-3" x1="32.33" y1="50.83" x2="38.33" y2="50.83"/><line class="cls-3" x1="34.9" y1="57.47" x2="40.38" y2="57.47"/><line class="cls-3" x1="27.58" y1="61.61" x2="35.69" y2="61.61"/><line class="cls-3" x1="20.05" y1="60.79" x2="27.58" y2="60.79"/><line class="cls-3" x1="22.58" y1="67.47" x2="32.47" y2="67.47"/><line class="cls-3" x1="29.97" y1="65.9" x2="39.08" y2="65.9"/><line class="cls-3" x1="39.08" y1="64.11" x2="44.23" y2="64.11"/><line class="cls-3" x1="33.36" y1="72.39" x2="44.71" y2="72.39"/><line class="cls-3" x1="22.58" y1="73.25" x2="33.36" y2="73.25"/><line class="cls-3" x1="22.58" y1="79.11" x2="27.72" y2="79.11"/><line class="cls-3" x1="32.61" y1="79.18" x2="38.33" y2="79.18"/><line class="cls-3" x1="27.72" y1="83.28" x2="35.04" y2="83.28"/><line class="cls-3" x1="36.54" y1="82.43" x2="42.51" y2="82.43"/><line class="cls-3" x1="27.08" y1="86.6" x2="20.33" y2="86.6"/><line class="cls-3" x1="27.08" y1="90.03" x2="31.08" y2="90.03"/><line class="cls-3" x1="20.33" y1="96.57" x2="23.94" y2="96.57"/><line class="cls-3" x1="23.94" y1="100.71" x2="27.87" y2="100.71"/><line class="cls-3" x1="15.05" y1="108.28" x2="25.62" y2="108.28"/><line class="cls-3" x1="26.33" y1="107.6" x2="29.15" y2="107.6"/><line class="cls-3" x1="18.47" y1="116.7" x2="21.62" y2="116.7"/><line class="cls-3" x1="17.65" y1="118.31" x2="12.73" y2="118.31"/><line class="cls-3" x1="20.87" y1="120.81" x2="27.87" y2="120.81"/><path class="cls-3" d="M23.58,69.44a3.31,3.31,0,0,1-.07,1.29c-.18.67-.9,1.74-1,2.53s.54,1.46.39,2.93a4,4,0,0,1-1.42,2.46s.67,1,.57,1.29a19.6,19.6,0,0,0-1,1.71c-.14.43.39,1.43.36,1.64s-.75.58-.89.93a38.29,38.29,0,0,1-1,3.93,3.37,3.37,0,0,0-.54,1.14c-.11.29-.53.15-.53.15v3.35l1.32,2.14-.11,1.68a1.72,1.72,0,0,0-.75.15c-.43.17-.61,1.14-.61,1.14l-1.07.46v1.82l-.43,0a1.62,1.62,0,0,0-.07.46c0,.25-.34,2.4-.34,2.4H3.12V95H4.55V87.4H6.87V79.08H10V73.15h1.5V70.62h.64V53.16H14.4V40H6.8V37.38H2.44V22.45H-.84V5H-7.77V-8.9H20.35l.92.32a5.47,5.47,0,0,0,1.08,0s1.37-.25,1.41-.4.43,0,.53,0a11.55,11.55,0,0,0,1.32,0c.25-.07,1-.53,1.22-.64s0-.32,0-.43a1.21,1.21,0,0,1,.75-.46h.78v.28l-.51.06a.73.73,0,0,0-.09.48c.06.19.36.81.26.82s-.36,0-.36.14.49.32.36.48-.07.25,0,.35.66-.1.76.09.29.42.22.64L29-7l.48.1v.38s-.42-.1-.51,0-.1.67-.16.8-.45.54-.42.67a2.37,2.37,0,0,1,.13,1c-.1.29-.51.7-.44.92a1.72,1.72,0,0,1,0,.58l.31.32-.31.35a4.31,4.31,0,0,0-.2.67c0,.12-.76.67-.57.76a4,4,0,0,1,.41.26,1.12,1.12,0,0,0-.09.54c0,.29.16.57,0,.7s-.83.06-.67.16.41.22.41.38-.35.32-.22.48.25.48.16.54-.1.49-.1.49a3,3,0,0,1-.12.5c-.07.13,0,.32.09.48s-.06.83.07.92.25,0,.35.16,0,.9.09,1.09.39,1.92.39,1.92c.16.24,1.59,2.45,1.68,2.6a10.32,10.32,0,0,0,1.17,1.79c.49.51,4.77,4.62,5.32,5.26s1.71,2,2.09,2.39.54.35.76.57,1.73,3.8,2.17,4.5.93,1,.93,1.62a14.16,14.16,0,0,1-.45,1.85c-.09.64-1.66,6.19-1.88,7s-1.12,4.18-1.21,4.65-.13,1.06-.48,1.31a5,5,0,0,1-.8.57,1.45,1.45,0,0,0-.51.61s-.35,3.19-.35,4.46a14.14,14.14,0,0,1-.27,3A10.7,10.7,0,0,1,35.12,53c-.32.63-2.26,2.8-2.39,3.38s-.32,1-.45,1S30.24,59,30,59.11s.16,0-.26.1a2.14,2.14,0,0,0-1.05.47c-.13.2-.16,1.15-.32,1.41s-.35.12-.67.35-.51.89-.83,1.15a11.07,11.07,0,0,0-1.81,1.49c-.29.45-1.47,5.36-1.47,5.36" transform="translate(8.18 25.95)"/><line class="cls-3" x1="39.04" y1="46.29" x2="46.49" y2="46.29"/><line class="cls-3" x1="40.66" y1="43.43" x2="44.08" y2="43.43"/><line class="cls-3" x1="41.42" y1="43.43" x2="41.42" y2="59.39"/><line class="cls-3" x1="38.49" y1="47.3" x2="38.49" y2="57.47"/><line class="cls-3" x1="38.49" y1="52.13" x2="50.05" y2="52.13"/><line class="cls-3" x1="38.49" y1="49.11" x2="48.34" y2="49.11"/><line class="cls-3" x1="38.76" y1="54.93" x2="49.9" y2="54.93"/><line class="cls-3" x1="44.27" y1="46.29" x2="44.27" y2="64.11"/><line class="cls-3" x1="47.19" y1="54.93" x2="47.19" y2="64.11"/><line class="cls-3" x1="44.27" y1="63.7" x2="47.45" y2="63.7"/><line class="cls-3" x1="47.19" y1="60.79" x2="42.22" y2="60.79"/><line class="cls-3" x1="41.42" y1="57.93" x2="47.19" y2="57.93"/><path class="cls-3" d="M14.83-2.65H18.9v.77h.83v.75h.85v.84h1.83V4H19" transform="translate(8.18 25.95)"/><line class="cls-3" x1="35.78" y1="26.55" x2="30.59" y2="26.55"/><line class="cls-3" x1="31.58" y1="23.06" x2="36.22" y2="23.06"/><line class="cls-3" x1="30.71" y1="21.01" x2="36.54" y2="21.01"/><line class="cls-3" x1="31.94" y1="16.97" x2="31.94" y2="21.01"/><line class="cls-3" x1="34.55" y1="16.55" x2="34.55" y2="21.01"/><line class="cls-3" x1="31.94" y1="18.78" x2="37.15" y2="18.78"/><line class="cls-3" x1="33.56" y1="21.01" x2="33.56" y2="23.06"/><line class="cls-3" x1="34.39" y1="23.06" x2="34.39" y2="26.55"/><path class="cls-5" d="M44.74-10.92s-.08.52.19.71a1.31,1.31,0,0,1,.66.81c.12.47,0,.94.31,1.21a12.81,12.81,0,0,1,.93,1,2.43,2.43,0,0,0-1,1.36c-.46,1.1-.11,1.1-.89,1.65s-1.08.69-1.55.62a2.83,2.83,0,0,0-1.17,0s0,.48-.3.48a2.86,2.86,0,0,0-1.43.39c-.31.27-.43.73-.78,1s-2,1-2.21,1.12-.42.77-.58.77-1.61-.19-1.64,0-.51.93,0,1.24.93.74.92.93-.91.9-.52,1.36,1,1,.85,1.32-.22.7-.58.73-.67.55-.67.55l0,.69" transform="translate(8.18 25.95)"/><path class="cls-5" d="M28,8.2A9.81,9.81,0,0,0,30.13,8c.35-.2,1.32-.78,1.59-.58s1.07.73,1.52.5.41-.31.92-.54,1.69-.35,1.93-.51a7.18,7.18,0,0,1,2.22-.19c.27.08.54.11.5.42s.27.39.74.9.29.69.61.85.86,0,1,.21.48.72,1,.64,1.79-.39,2-.19.69.23.54.5-.74.16-.47.62.55.47.27.66-.62.27-.85.78-.19.51-.11.72.81.44.54.71a6.37,6.37,0,0,0-.62.81,1,1,0,0,1-1,0c-.62-.27-.85-.62-1.4-.29s-1.27.64-1.27,1.15a3.59,3.59,0,0,0,.77,1.58,2.47,2.47,0,0,1,.08,1.34,3,3,0,0,1-1.2,1.34c-.43.11-.72,0-1.2.15l-.48.19" transform="translate(8.18 25.95)"/><path class="cls-5" d="M39,26.18c-.19-.27-1-.63-.51-1.3s.93-1.57.77-2,0-1.12-.47-1.24-1.39-.27-1.39-.27,1.14,0,1.21-.38l.06-.43" transform="translate(8.18 25.95)"/><path class="cls-5" d="M32.48,32.58s.93-.47.94-.28a1.08,1.08,0,0,0,.51.74c.34.27.19.58.31.7s1.5-.16,1.91.15a2.42,2.42,0,0,0,1.81.27,4.14,4.14,0,0,1,.77-.73c.28-.16.93,0,1.16-.18s.24-.31.47-.21.66.58.89.54.54-.27.62,0-.42.74,0,.81a1.79,1.79,0,0,1,1,.41c.15.21,1-.21.89-.6s-1-1.28-.85-1.7.54-.68.35-1-.66-.19-.43-.65.46-.13.35-.76A4.5,4.5,0,0,1,43,29a6.15,6.15,0,0,0,0-1" transform="translate(8.18 25.95)"/><path class="cls-5" d="M25.63,66.38c-.1.16.61-.14.72,0s.14.61.33.61,1.19.34,1.43,0,.55-.78.62-.9-.23-.11.08-.11a16.42,16.42,0,0,1,2.09.31s.73.23.44.5a1.48,1.48,0,0,1-.59.35,5.13,5.13,0,0,1,1,1.36c.11.46-.16.66,0,.77s1.12-.11,1.39,0a7.13,7.13,0,0,1,.78.47l.66.88s-.78.4-.43.9.54.62.43.93-.44.85-.22,1,.53.11.57.5a2.7,2.7,0,0,1,0,1.2c-.16.47-.72.93-.57,1.16a2.56,2.56,0,0,1-.29,2.1A8.85,8.85,0,0,1,32,79.62a7.55,7.55,0,0,0-.85.7s0,1.12,0,1.33-.47.26-.39.41.77.62.67.74l-.75,1s.61.34.75.73.49.78.53.58.66-.54.7-.35-.23.7,0,.82,1,.42,1.08.7-.27,1.35.2,2.24.89,1,.58,1.32-1,.74-1,1.24a7.43,7.43,0,0,0,.12,1.4s.23.69.15.81a2.87,2.87,0,0,0-.15.54l-1,.89c-.12.12-.81-.24-1.05.17s0,1-.23,1-.7-.27-.7,0,.22.19.31.58.5.66,0,1-.55.47-.6.93-.48.66.25,1.09,1.28.7,1.28,1a4.43,4.43,0,0,0,.18.86" transform="translate(8.18 25.95)"/></g></g></g></svg>