<svg xmlns="http://www.w3.org/2000/svg" viewBox="0 0 23.57 20.88"><defs><style>.cls-1{fill:none;}.cls-2{fill:#010201;}.cls-3{fill:#010101;}</style></defs><title>Recurso 23</title><g id="Capa_2" data-name="Capa 2"><g id="Dados_E_P" data-name="Dados E&amp;P"><path class="cls-1" d="M6,10.09a2,2,0,0,0,1.39,2.48A1.77,1.77,0,0,0,6,10.09Z"/><path class="cls-1" d="M10.87,9.15c-.35.2-.71.38-1.06.6s-.37.36-.05.6A3,3,0,0,0,14,10a4.1,4.1,0,0,1-.88-.53c-.61-.64-1.43,0-2.07-.39C11,9,10.94,9.11,10.87,9.15Z"/><path class="cls-1" d="M4.27,13.11a1.8,1.8,0,0,0,2.85,0C5.93,12.32,5.05,12.33,4.27,13.11Z"/><path class="cls-1" d="M9.27,9.22c.51-.46,1.42-.48,1.56-1.39a.47.47,0,0,1,.33-.42c.21,0,.22-.23.22-.41,0-.53,0-1.07,0-1.66A4.73,4.73,0,0,0,9.92,6a2.88,2.88,0,0,0-.94,3C9,9.18,9.13,9.34,9.27,9.22Z"/><path class="cls-1" d="M5,11.94a2.19,2.19,0,0,0,.33-1.88L5,10.18a1.81,1.81,0,0,0-1.11,2.23c0,.08,0,.23.15.16C4.39,12.38,4.84,12.24,5,11.94Z"/><path class="cls-1" d="M12.53,7.61a.31.31,0,0,1,.12.24c0,.66.58.78,1,1s.52.53.76.35a1.14,1.14,0,0,0,.21-.93V8.23a2.8,2.8,0,0,0-2.23-2.79c-.22,0-.31,0-.29.17C12.18,6.29,11.71,7.09,12.53,7.61Z"/><path class="cls-1" d="M17.57,10.6c-.13-.12.24-.64-.25-.5A1.84,1.84,0,0,0,16,12.39c.05.18.06.21.25.14A2.31,2.31,0,0,0,17.57,10.6Z"/><path class="cls-1" d="M18.06,10.08a2.1,2.1,0,0,0,1,2.34c.41.23.53.18.58-.3A1.84,1.84,0,0,0,18.06,10.08Z"/><path class="cls-1" d="M18.2,12.51c-.63.05-1.37-.08-1.85.62a1.87,1.87,0,0,0,2.59.26c.15-.11.33-.3.18-.42A1.53,1.53,0,0,0,18.2,12.51Z"/><path class="cls-2" d="M11.74,12.1a3.88,3.88,0,1,0,0-7.75A3.77,3.77,0,0,0,7.85,8.2,3.78,3.78,0,0,0,11.74,12.1Zm.33-6.49c0-.14.07-.21.29-.17a2.8,2.8,0,0,1,2.23,2.79v.06a1.14,1.14,0,0,1-.21.93c-.24.18-.52-.21-.76-.35s-1-.36-1-1a.31.31,0,0,0-.12-.24C11.71,7.09,12.18,6.29,12.07,5.61Zm1.07,3.84A4.1,4.1,0,0,0,14,10a3,3,0,0,1-4.26.37c-.32-.24-.22-.44.05-.6s.71-.4,1.06-.6c.07,0,.16-.11.2-.09C11.71,9.45,12.53,8.81,13.14,9.45ZM9.92,6a4.73,4.73,0,0,1,1.45-.68c0,.59,0,1.13,0,1.66,0,.18,0,.36-.22.41a.47.47,0,0,0-.33.42c-.14.91-1.05.93-1.56,1.39-.14.12-.25,0-.29-.16A2.88,2.88,0,0,1,9.92,6Z"/><path class="cls-3" d="M15.08,10.88a.28.28,0,0,0-.22,0,3.76,3.76,0,0,0-.29.28,4,4,0,0,1-5.15.46A6.17,6.17,0,0,1,8.66,11a.28.28,0,0,0-.31-.08c-.16.08,0,.18,0,.28A2.78,2.78,0,0,1,8.26,13a1.24,1.24,0,0,0,.32,0c.56-.11.66.17.62.66s0,1,0,1.55c0,.67.24.9.93.9h3.33c.53,0,.78-.24.79-.79s0-1.15,0-1.72,0-.69.56-.6c.34.06.38,0,.29-.41a3.54,3.54,0,0,1,0-1.52C15.12,11,15.2,10.93,15.08,10.88Z"/><path class="cls-3" d="M13.56,18.75c0-.5,0-1,0-1.49s-.29-.6-.72-.58a18.71,18.71,0,0,1-2.12,0c-.57,0-.81.09-.82.63,0,.93,0,1.87,0,2.8a.66.66,0,0,0,.65.71,21.87,21.87,0,0,0,2.29,0,.71.71,0,0,0,.75-.89A8,8,0,0,1,13.56,18.75Z"/><path class="cls-3" d="M23.54,10.41c0-.84-.35-1.1-1.37-1-.65,0-.94.29-.91,1,0,.42-.13.54-.51.48a1.64,1.64,0,0,0-.38,0A2.54,2.54,0,0,1,20.29,13a1,1,0,0,0,.26,0c.46,0,.77,0,.72.62a.68.68,0,0,0,.86.77,2.26,2.26,0,0,1,.45,0c.72,0,.93-.2,1-.93Q23.6,12,23.54,10.41Z"/><path class="cls-2" d="M5.7,9.39A2.46,2.46,0,0,0,3.14,12a2.46,2.46,0,0,0,2.54,2.46,2.49,2.49,0,0,0,2.57-2.56A2.46,2.46,0,0,0,5.7,9.39Zm-1.79,3A1.81,1.81,0,0,1,5,10.18l.32-.12A2.19,2.19,0,0,1,5,11.94c-.17.3-.62.44-1,.63C3.94,12.64,3.94,12.49,3.91,12.41Zm.36.7c.78-.78,1.66-.79,2.85,0A1.8,1.8,0,0,1,4.27,13.11Zm3.14-.54A2,2,0,0,1,6,10.09,1.77,1.77,0,0,1,7.41,12.57Z"/><path class="cls-3" d="M3,11.26c.17-.47-.07-.43-.34-.39s-.53-.11-.49-.5,0-.74-.4-.9a2,2,0,0,0-1.36,0,.58.58,0,0,0-.42.64c0,1,0,2,0,3,0,1.33,0,1.33,1.34,1.33.58,0,.86-.24.82-.81s.11-.66.59-.58a1.64,1.64,0,0,0,.37,0A2.41,2.41,0,0,1,3,11.26Z"/><path class="cls-2" d="M17.79,9.37a2.57,2.57,0,0,0-2.53,2.46,2.49,2.49,0,0,0,2.53,2.6,2.46,2.46,0,0,0,2.54-2.54A2.64,2.64,0,0,0,17.79,9.37Zm-1.83,3a1.84,1.84,0,0,1,1.36-2.29c.49-.14.12.38.25.5a2.31,2.31,0,0,1-1.36,1.93C16,12.6,16,12.57,16,12.39Zm3,1a1.87,1.87,0,0,1-2.59-.26c.48-.7,1.22-.57,1.85-.62a1.53,1.53,0,0,1,.92.46C19.27,13.09,19.09,13.28,18.94,13.39Zm.12-1a2.1,2.1,0,0,1-1-2.34,1.84,1.84,0,0,1,1.58,2C19.59,12.6,19.47,12.65,19.06,12.42Z"/><path class="cls-3" d="M11.2,4.17a1.83,1.83,0,0,1,1.11,0c.39.12.57,0,.56-.42,0-.84,0-1.68,0-2.52a1.16,1.16,0,0,0-1.8-1,.59.59,0,0,0-.39.61c0,.5,0,1,0,1.49s0,1,0,1.49S10.85,4.29,11.2,4.17Z"/></g></g></svg>