<svg xmlns="http://www.w3.org/2000/svg" viewBox="0 0 18.95 17.37"><defs><style>.cls-1{fill:#fff;}</style></defs><title>Recurso 30</title><g id="Capa_2" data-name="Capa 2"><g id="Dados_E_P" data-name="Dados E&amp;P"><path class="cls-1" d="M13,0H4.34a.39.39,0,0,0-.28.12L.12,4.06A.39.39,0,0,0,0,4.34V17a.4.4,0,0,0,.39.4H13a.4.4,0,0,0,.4-.4V.39A.4.4,0,0,0,13,0Zm-.39,16.58H.79V4.74H4.34a.4.4,0,0,0,.4-.4V2H4V4H1.35L4.51.79h8.12Z"/><path class="cls-1" d="M6.71,6.32a4.74,4.74,0,1,0,4.74,4.73A4.74,4.74,0,0,0,6.71,6.32Zm.39.8a3.9,3.9,0,0,1,2.3,1l-2.3,2ZM6.71,15a3.95,3.95,0,0,1-.39-7.88v3.93a.77.77,0,0,0,0,.15h0L7.8,14.85A4.28,4.28,0,0,1,6.71,15Zm1.82-.45L7.18,11.16l2.74-2.4a3.93,3.93,0,0,1-1.39,5.79Z"/><path class="cls-1" d="M15.79,0H14.21V.79h1.18V16.58H14.21v.79h1.58a.39.39,0,0,0,.39-.4V.39A.39.39,0,0,0,15.79,0Z"/><path class="cls-1" d="M18.55,0H17V.79h1.19V16.58H17v.79h1.58A.4.4,0,0,0,19,17V.39A.4.4,0,0,0,18.55,0Z"/><path class="cls-1" d="M11.45,1.58H5.92v.79h5.13v.79H5.92V4h5.53a.4.4,0,0,0,.39-.4V2A.4.4,0,0,0,11.45,1.58Z"/><rect class="cls-1" x="8.29" y="4.74" width="3.16" height="0.79"/><rect class="cls-1" x="5.92" y="4.74" width="1.58" height="0.79"/></g></g></svg>