<svg xmlns="http://www.w3.org/2000/svg" viewBox="0 0 25.16 26.16"><title>Recurso 24</title><g id="Capa_2" data-name="Capa 2"><g id="Dados_E_P" data-name="Dados E&amp;P"><path d="M20.6,5.29a.7.7,0,0,0,1,.17.69.69,0,0,0,.07-1,11.42,11.42,0,0,0-6-4.06A17.62,17.62,0,0,0,13.6,0h-2c-.37.06-.74.1-1.11.17A11.38,11.38,0,0,0,5,2.85,11.63,11.63,0,0,0,3.45,4.48a.65.65,0,0,0-.07.76A.63.63,0,0,0,4,5.6a.78.78,0,0,0,.63-.37,10.09,10.09,0,0,1,8.71-3.85,10.13,10.13,0,0,1,4,1.16A10.26,10.26,0,0,1,20.6,5.29Z"/><path d="M15.86,10.13A4.67,4.67,0,0,0,15,9.8c-.44-.13-.5-.09-.66.34-.48,1.33-1,2.65-1.45,4,0,.15-.11.3-.3.3s-.23-.15-.28-.3c-.14-.37-.27-.75-.41-1.12-.36-1-.72-2-1.07-2.95-.12-.31-.21-.36-.52-.27l-.49.15A2.41,2.41,0,0,0,8,12.33c0,1.44,0,2.87,0,4.31a.92.92,0,0,0,.16.53c.47.7.93,1.42,1.4,2.13a.73.73,0,0,1,.14.45c0,1,0,2,0,3s0,2,0,3c0,.36.08.44.44.44h4.9c.28,0,.36-.09.38-.36a2.72,2.72,0,0,0,0-.28c0-1.91,0-3.81,0-5.72a1,1,0,0,1,.16-.55c.47-.69.92-1.39,1.38-2.09a.76.76,0,0,0,.16-.44c0-1.51,0-3,0-4.52A2.28,2.28,0,0,0,15.86,10.13Z"/><path d="M5.77,11.72a1.36,1.36,0,0,0-1.66.19c-.55.5-.62.5-1.17,0a1.34,1.34,0,0,0-1.68-.18l0,0A2,2,0,0,0,0,13.61c0,1,0,2,0,3a1.17,1.17,0,0,0,.22.71c.26.38.5.77.76,1.15a.74.74,0,0,1,.15.5v3.7c0,.6.25.86.85.86H5c.63,0,.87-.24.87-.86v-3.7A.77.77,0,0,1,6,18.47c.27-.39.52-.8.79-1.19a1.29,1.29,0,0,0,.24-.76c0-.9,0-1.8,0-2.71A2.1,2.1,0,0,0,5.77,11.72Z"/><path d="M25.16,13.6a2,2,0,0,0-.3-1,2.4,2.4,0,0,0-1.58-1,.77.77,0,0,0-.69.13c-.26.2-.53.38-.78.59a.24.24,0,0,1-.35,0l-.78-.59a.72.72,0,0,0-.69-.13,5.27,5.27,0,0,0-.7.25,2,2,0,0,0-1.16,1.7c-.08,1,0,2.08,0,3.11a1.13,1.13,0,0,0,.21.67c.28.4.53.81.81,1.21a.82.82,0,0,1,.14.48c0,.62,0,1.24,0,1.86v1.84c0,.6.24.85.86.85h3.06c.61,0,.86-.25.86-.87V19a.88.88,0,0,1,.17-.57c.27-.39.52-.78.78-1.17a1.12,1.12,0,0,0,.18-.62C25.15,15.6,25.15,14.6,25.16,13.6Z"/><path d="M15.25,6.05a2.67,2.67,0,1,0-2.66,2.69A2.68,2.68,0,0,0,15.25,6.05Z"/><path d="M3.53,11A2.08,2.08,0,1,0,1.44,9,2.08,2.08,0,0,0,3.53,11Z"/><path d="M19.56,8.93a2.08,2.08,0,1,0,2.1-2A2.08,2.08,0,0,0,19.56,8.93Z"/><path d="M13.28,10.3A.35.35,0,0,0,13,9.79h-.44c-.18,0-.48-.11-.64.18s.1.47.22.68a.6.6,0,0,1,.14.42,5.4,5.4,0,0,1-.08.58,2.42,2.42,0,0,0,.26,1.67c.06.13.2.22.26.06A2.48,2.48,0,0,0,13,12.05c-.09-.59-.3-1.21.22-1.73Z"/></g></g></svg>