<svg xmlns="http://www.w3.org/2000/svg" viewBox="0 0 15.52 16.26"><defs><style>.cls-1{fill:#fff;}</style></defs><title>Recurso 31</title><g id="Capa_2" data-name="Capa 2"><g id="Dados_E_P" data-name="Dados E&amp;P"><path class="cls-1" d="M15.52,1.63a2.07,2.07,0,0,1-.16.59,1.8,1.8,0,0,1-.37.5L11.71,6,9.9,7.84a.26.26,0,0,0-.08.21v7.54a.61.61,0,0,1-.44.67H9.13a1.11,1.11,0,0,1-.3-.17l-3-2.44a.63.63,0,0,1-.26-.54V7.89a.26.26,0,0,0-.08-.2L3.13,5.35,1,3.23C.81,3,.57,2.79.36,2.54A1.55,1.55,0,0,1,1.23,0a1.15,1.15,0,0,1,.26,0H14a1.53,1.53,0,0,1,1.46,1.27l0,.18ZM7.76,1.14H1.56a.41.41,0,0,0-.32.69c.24.27.5.51.76.77L4.32,4.94l1.89,1.9a1.4,1.4,0,0,1,.45,1.07c0,1.62,0,3.25,0,4.87a.19.19,0,0,0,.08.17L8.6,14.44s.05.07.08.05,0-.06,0-.1q0-3.19,0-6.41a1.25,1.25,0,0,1,.39-.92l1-1,4.09-4.12a.49.49,0,0,0,.12-.13.42.42,0,0,0,.07-.31.4.4,0,0,0-.44-.33Z"/></g></g></svg>