<svg xmlns="http://www.w3.org/2000/svg" viewBox="0 0 22.14 14.38"><defs><style>.cls-1{fill:none;}.cls-2{fill:#010101;}</style></defs><title>Recurso 21</title><g id="Capa_2" data-name="Capa 2"><g id="Dados_E_P" data-name="Dados E&amp;P"><path class="cls-1" d="M10.89,4.84a1.14,1.14,0,0,0-.12.14c-.08.2-.2.43-.42.35s0-.33,0-.51A1.3,1.3,0,0,0,9.6,3.38a1.28,1.28,0,0,1,0,1.13.72.72,0,0,1-.5.51c-.35.06-.05-.36-.27-.43h0c-.61.56-.37,1.16-.1,1.77,0,.05,0,.13,0,.2,0,.22.05.49-.2.57s-.31-.18-.41-.34S8,6.61,7.91,6.62a.24.24,0,0,0-.13.13,1.91,1.91,0,0,0,.48,1.81,1.7,1.7,0,0,0,1.34.25c-.45-.8.09-1.32.49-1.88a1.29,1.29,0,0,0,.33.94.62.62,0,0,1,.1.67c-.18.38.07.31.26.29A1.7,1.7,0,0,0,12.17,6.9,3.63,3.63,0,0,0,10.89,4.84Z"/><path class="cls-1" d="M8.78,4.58Z"/><path class="cls-2" d="M20.81,11.5h-19c-1.07,0-1.07,0-1,1.07,0,.1-.06.28.14.26s.24.17.27.35a1.3,1.3,0,0,0,1.6,1.1c.58-.08.73-.55,1-.94A3.05,3.05,0,0,0,4,13.7a1.51,1.51,0,0,0,1.27.67,1.26,1.26,0,0,0,1.08-1.25c0-.34.2-.28.4-.28h8.67c.24,0,.38,0,.41.33a1.27,1.27,0,0,0,1.62,1.12c.55-.1.7-.56,1-.94a3.1,3.1,0,0,0,.17.32,1.27,1.27,0,0,0,1.2.69,1.35,1.35,0,0,0,1.12-.81c.12-.26-.17-.76.42-.77a1.25,1.25,0,0,0,0-.19,3.62,3.62,0,0,1,0-.57C21.4,11.59,21.24,11.5,20.81,11.5Z"/><path class="cls-2" d="M21.33,2.93a2.84,2.84,0,0,0-2.07-1.57c-.41-.07-.53-.22-.51-.61S18.55,0,18,0H15c-.52,0-.75.23-.71.74s-.11.5-.5.5q-5,0-10,0A3.19,3.19,0,0,0,.7,3.17,6.58,6.58,0,0,0,.9,9.45,2.87,2.87,0,0,0,3.56,11c1.76,0,3.53,0,5.29,0s3.7,0,5.54,0c.39,0,.48-.08.48-.47,0-2.91,0-5.82,0-8.72,0-.12,0-.24,0-.36s0-.23.14-.21.26-.06.27.14.2.27.4.27c.56,0,1.13,0,1.69,0,.17,0,.32,0,.36-.2s0-.24.2-.21a.25.25,0,0,1,.22.29V2q0,4.26,0,8.52c0,.17-.14.41.23.44a2.92,2.92,0,0,0,2.86-1.52A5.45,5.45,0,0,0,22.06,7,6.3,6.3,0,0,0,21.33,2.93ZM10.78,8.83c-.19,0-.44.09-.26-.29a.62.62,0,0,0-.1-.67,1.29,1.29,0,0,1-.33-.94c-.4.56-.94,1.08-.49,1.88a1.7,1.7,0,0,1-1.34-.25,1.91,1.91,0,0,1-.48-1.81.24.24,0,0,1,.13-.13c.09,0,.13.08.17.16s.2.4.41.34.21-.35.2-.57c0-.07,0-.15,0-.2-.27-.61-.51-1.21.1-1.77h0c.22.07-.08.49.27.43a.72.72,0,0,0,.5-.51,1.28,1.28,0,0,0,0-1.13,1.3,1.3,0,0,1,.73,1.44c0,.18-.26.4,0,.51s.34-.15.42-.35a1.14,1.14,0,0,1,.12-.14A3.63,3.63,0,0,1,12.17,6.9,1.7,1.7,0,0,1,10.78,8.83Z"/><path class="cls-2" d="M16,7h.56c1.24,0,1.23,0,1.2-1.12,0-.31-.13-.33-.36-.32H16c-.72,0-.72,0-.72.71S15.27,7,16,7Z"/><path class="cls-2" d="M15.58,3.4a15,15,0,0,1,1.64,0c.43,0,.54-.09.52-.52,0-.82,0-.82-.83-.82h-.67c-1,0-1,0-1,1C15.27,3.33,15.33,3.41,15.58,3.4Z"/><path class="cls-2" d="M16.26,5.14h.52c1,0,1,0,1-1,0-.21,0-.3-.29-.29q-.94,0-1.89,0c-.22,0-.29.05-.3.28C15.2,5.14,15.19,5.14,16.26,5.14Z"/><path class="cls-2" d="M15.26,8.43c0,.26.09.31.32.31.62,0,1.24,0,1.85,0,.26,0,.3-.09.31-.32,0-1,0-1-1-1h-.51C15.21,7.4,15.22,7.4,15.26,8.43Z"/><path class="cls-2" d="M16.27,10.48h.46c1.07,0,1.06,0,1-1.05,0-.23-.07-.29-.29-.29h-1.9c-.23,0-.28.07-.29.29C15.21,10.48,15.2,10.48,16.27,10.48Z"/></g></g></svg>