<svg xmlns="http://www.w3.org/2000/svg" viewBox="0 0 19.78 19.78"><defs><style>.cls-1{fill:#fff;}</style></defs><title>Recurso 29</title><g id="Capa_2" data-name="Capa 2"><g id="Dados_E_P" data-name="Dados E&amp;P"><path class="cls-1" d="M19.49,19.2h-2V12a.29.29,0,0,0-.58,0V19.2H15.17V9.71h1.77v.89a.29.29,0,1,0,.58,0V9.42a.29.29,0,0,0-.29-.29H14.88a.29.29,0,0,0-.29.29V19.2H13.46V14a.29.29,0,0,0-.29-.29H10.83a.29.29,0,0,0-.29.29v1.24a.29.29,0,0,0,.58,0v-.95h1.76V19.2H11.12V16.63a.29.29,0,0,0-.58,0V19.2H9.4V11.68a.29.29,0,0,0-.29-.29H6.77a.29.29,0,0,0-.29.29v1.77a.29.29,0,1,0,.58,0V12H8.82V19.2H7.06V14.81a.29.29,0,0,0-.58,0V19.2H5.34V14.81a.29.29,0,0,0-.29-.29H2.71a.29.29,0,0,0-.29.29V19.2H.58V17.36h.65a.29.29,0,0,0,0-.58H.58V13h.65a.29.29,0,0,0,0-.58H.58V8.7h.65a.29.29,0,1,0,0-.58H.58V4.36h.65a.29.29,0,0,0,.29-.29.28.28,0,0,0-.29-.28H.58V.29A.29.29,0,0,0,0,.29v19.2a.29.29,0,0,0,.29.29h19.2a.29.29,0,0,0,0-.58ZM3,19.2V15.1H4.76v4.1Z"/><path class="cls-1" d="M3.88,13.14a1.46,1.46,0,0,0,1.46-1.46A1.4,1.4,0,0,0,5.19,11L7,9.66a1.43,1.43,0,0,0,1,.36A1.47,1.47,0,0,0,9,9.53l1.58.91a1.43,1.43,0,0,0-.07.46,1.46,1.46,0,1,0,2.92,0,1.44,1.44,0,0,0-.3-.88l2.17-2.46a1.37,1.37,0,0,0,.72.2,1.47,1.47,0,1,0-1.16-.58L12.73,9.64a1.43,1.43,0,0,0-.73-.2,1.48,1.48,0,0,0-1.1.5L9.32,9a1.5,1.5,0,0,0,.08-.47,1.46,1.46,0,1,0-2.92,0,1.44,1.44,0,0,0,.15.65L4.84,10.58a1.48,1.48,0,0,0-1-.36,1.46,1.46,0,0,0,0,2.92ZM16.05,5.42a.88.88,0,1,1,0,1.76A.87.87,0,0,1,15.47,7h0a.89.89,0,0,1-.3-.66.88.88,0,0,1,.88-.88ZM12,10a.88.88,0,1,1,0,1.76A.88.88,0,1,1,12,10ZM7.94,7.68a.88.88,0,1,1,0,1.76.88.88,0,1,1,0-1.76ZM3.88,10.8a.89.89,0,1,1-.88.88A.88.88,0,0,1,3.88,10.8Z"/></g></g></svg>