<svg xmlns="http://www.w3.org/2000/svg" viewBox="0 0 20.37 20.02"><defs><style>.cls-1{fill:#231f20;}</style></defs><title>Recurso 19</title><g id="Capa_2" data-name="Capa 2"><g id="Dados_E_P" data-name="Dados E&amp;P"><path class="cls-1" d="M4.23,11.4c-.22.28,0,.86-.07,1.3s.07.38.36.37c.82,0,1.63,0,2.44,0,.34,0,.43.08.42.42,0,.88,0,1.77,0,2.69a2.77,2.77,0,0,0,.78-.62,3.09,3.09,0,0,0,1.61.94c0-1,0-2,0-3,0-.35.06-.47.44-.46,1.36,0,2.73,0,4.09,0,.42,0,.47.14.46.5,0,1,0,1.95,0,3a2.88,2.88,0,0,0,.9-.48c.55-.66,1-.32,1.37.17l.1-.11c0-.88,0-1.77,0-2.64,0-.36.1-.44.43-.42.51,0,1,0,1.55,0s.92.13,1.15-.07,0-.78.09-1.18-.11-.53-.53-.53c-4.76,0-9.53,0-14.29,0C5.07,11.31,4.46,11.11,4.23,11.4Z"/><path class="cls-1" d="M5.19,6.63c0,.91,0,1.82,0,2.74,0,.69,0,.71.7.68.39,0,.63,0,.55.51,0,.13,0,.18.21.19,1.21.06,2.42,0,3.64,0,.71,0,1.42,0,2.14,0,.37,0,.48,0,.42-.36s.15-.32.37-.31a3.69,3.69,0,0,1,.47,0c.34,0,.43-.09.42-.43,0-1,0-2.06,0-3.1,0-.33-.08-.43-.42-.43-1.35,0-2.69,0-4,0s-2.65,0-4,0C5.25,6.1,5.18,6.24,5.19,6.63ZM12.37,7c.52,0,.17.39.3.51,0,.27.12.57-.35.55s-.25-.35-.27-.55S11.9,7,12.37,7ZM10.56,7c.51,0,.29.34.33.52s.08.56-.38.55-.31-.33-.33-.56S10.1,7,10.56,7Zm-2.15.51c0-.26-.09-.58.35-.49.15,0,.49-.1.35.22s.44.81-.34.82C8.23,8.12,8.47,7.76,8.41,7.55ZM6.94,7c.54,0,.24.37.33.52s.11.54-.34.55-.36-.31-.38-.57S6.5,7,6.94,7Z"/><path class="cls-1" d="M14.72,10.73c.3,0,.65.13.89-.24.35-.53.75-1,1.12-1.54.15-.2.28-.25.45,0,.39.53.82,1,1.17,1.58.24.37.58.21.86.24s.05-.32.08-.5a1.07,1.07,0,0,0,0-.31c-.14-1-.28-2.1-.41-3.16-.11-.83-.15-1.68-.3-2.51,0-.26-.14-.76.08-.8.44-.07.29-.33.33-.57s.17-.51-.2-.49-.42-.21-.44-.52a4.36,4.36,0,0,1-.09-.8c0-.28-.09-.31-.36-.27s-.84.12-.68-.54c0-.18,0-.27-.25-.28s-.3.1-.27.31c.07.4-.06.66-.5.52s-.5.19-.53.5c0,.15,0,.33,0,.46s0,.63-.51.63c-.37,0-.16.45-.21.7s0,.35.25.31.29,0,.26.25c-.14,1-.28,2.07-.41,3.11s-.28,2.34-.4,3.51C14.62,10.44,14.5,10.7,14.72,10.73ZM18.26,7l.38,3.28c-.47-.62-.82-1.15-1.24-1.62a.39.39,0,0,1,0-.6Zm-.2-.33L17,8.11c-.38-.49-.71-.94-1.06-1.36-.14-.17-.16-.24,0-.42.36-.41.69-.86,1.06-1.34l1.15,1.47C18.19,6.56,18.11,6.61,18.06,6.68ZM16.67,4c-.11-.18-.44-.29-.33-.5s.41,0,.63-.06.53-.1.61.07-.22.35-.32.55-.39.45-.56,0Zm1.46,1.89c-1-1-1.06-1.15-.23-2.05ZM16.27,2.12c.09-.21-.13-.56.13-.63a2,2,0,0,1,1.11,0c.23.08.19.49.21.75s-.22.14-.34.15H16.23C16.15,2.26,16.24,2.2,16.27,2.12Zm-.16,1.73c.75.94.72,1.08-.34,2.07C16,5.21,15.87,4.52,16.11,3.85Zm-.42,3.2a10.56,10.56,0,0,1,1,1.18c.14.15,0,.34-.11.46-.37.49-.76,1-1.14,1.44l-.09,0C15.45,9.11,15.57,8.11,15.69,7.05Z"/><path class="cls-1" d="M20.3,18.25a2.25,2.25,0,0,1-.21.17c-.07,0-.15.08-.21.13a2.6,2.6,0,0,1-3.06.08.86.86,0,0,0-1.17,0,2.68,2.68,0,0,1-3.05-.12c-.31-.29-.47-.25-.79,0a2.6,2.6,0,0,1-3.36-.09c-.27-.23-.41-.11-.6,0A2.62,2.62,0,0,1,5.54,19a3.13,3.13,0,0,1-1.41-.73,1.6,1.6,0,0,1,0,.72.58.58,0,0,0,.42.68,3.63,3.63,0,0,0,3.29-.08c.14-.07.26-.25.44-.13a3.5,3.5,0,0,0,3.76,0c.09,0,.16-.14.31,0a3.39,3.39,0,0,0,3.66.06.37.37,0,0,1,.44,0,3.36,3.36,0,0,0,2.85.34c1-.34,1-.34,1-1.4A.89.89,0,0,0,20.3,18.25Z"/><path class="cls-1" d="M4.57,17.73A3.78,3.78,0,0,0,8,17.56c.14-.08.17-.07.31,0a3.66,3.66,0,0,0,3.69,0c.17-.09.27-.12.42,0a3.49,3.49,0,0,0,3.63,0c.18-.09.29-.12.42,0A3.54,3.54,0,0,0,18.8,18c1.18-.05,1.64-.58,1.47-1.64h-.09a2.87,2.87,0,0,1-3.81,0c-.17-.15-.21,0-.31.05a2.86,2.86,0,0,1-3.69,0c-.14-.11-.19-.15-.34,0a2.84,2.84,0,0,1-3.73,0c-.14-.13-.18-.09-.31,0a2.89,2.89,0,0,1-1.94.69,3.61,3.61,0,0,1-1.95-.74.88.88,0,0,1,.05.65C4,17.44,4.25,17.6,4.57,17.73Z"/><path class="cls-1" d="M4.58,6.5c-.32-.43-.69-.84-1-1.25L2.23,3.65a.75.75,0,0,0,.82-.5c.08-.19.15-.21.32-.06.87.72,1.78,1.4,2.63,2.14a1.51,1.51,0,0,0,1.52.42c-.26-.24-.45-.44-.67-.62L3,1.93a1.22,1.22,0,0,0-1.63,0A1.17,1.17,0,0,0,1.29,3.5c.73.94,1.5,1.86,2.26,2.79l1,1.27C4.63,7.18,4.81,6.81,4.58,6.5ZM1.79,2.76c0-.22.16-.35.42-.37a.39.39,0,0,1,.39.43.38.38,0,0,1-.43.4C1.87,3.22,1.81,3,1.79,2.76Z"/><path class="cls-1" d="M2.06,10.47c-.37-.21-.36-.2-.11-.55a.33.33,0,0,0,0-.2c0-.33,0-.65,0-1,0-.13,0-.25-.18-.23-.38,0-.34-.25-.34-.5V4.75c0-.22,0-.45-.31-.57,0,1.32,0,2.62,0,3.91,0,.13.09.39-.09.4-.52,0-.3.36-.31.58s-.13.77.05.83c.41.14.23.41.24.61s0,.4.35.39a.56.56,0,0,1,.58.41.72.72,0,0,1-.25.83.69.69,0,0,1-1-.33c-.15-.3-.37-.18-.56-.18s-.12.18-.11.28A1.48,1.48,0,0,0,1.28,13a1.49,1.49,0,0,0,1.4-1.17A1.26,1.26,0,0,0,2.06,10.47Z"/></g></g></svg>