<svg xmlns="http://www.w3.org/2000/svg" viewBox="0 0 17.21 16.9"><defs><style>.cls-1{fill:#231f20;}</style></defs><title>Recurso 18</title><g id="Capa_2" data-name="Capa 2"><g id="Dados_E_P" data-name="Dados E&amp;P"><path class="cls-1" d="M17.21,15.22a.73.73,0,0,0-.49-.74.35.35,0,0,1-.29-.4c0-1.09,0-2.19,0-3.28a.42.42,0,0,1,.14-.38c.83-.67.71-1.46-.28-1.83-1.6-.59-3.21-1.14-4.78-1.78-.44-.17-1-.16-1.27-.75a1.58,1.58,0,0,0-2.16-.82.83.83,0,0,1-.69,0L4.31,4.1C4,4,3.75,3.84,4,3.44a3.72,3.72,0,0,0,.31-.67.82.82,0,0,0,0-.76C4.13,1.42,3.91.8,3.7.19,3.61-.07,3.48,0,3.31.08A5.19,5.19,0,0,0,1.73,1.44,9.13,9.13,0,0,0,0,7.94a5.89,5.89,0,0,0,.19.91.21.21,0,0,0,.22.2,2.41,2.41,0,0,0,1.6-1.12c.19-.46.37-.92.59-1.37.43-.9.44-.91,1.35-.59s1.8.67,2.7,1c.29.1.44.21.3.6-.45,1.33-.85,2.68-1.27,4-.37,1.18-.79,2.35-1.1,3.54-.12.48-.3.6-.75.57-.65,0-.66,0-.66.64a.75.75,0,0,1,0,.15c0,.3.07.38.37.37.87,0,1.73,0,2.6,0H13.9c.14,0,.37.12.4-.12a2,2,0,0,0,0-.95c-.08-.21-.45-.1-.67-.08-.51.06-.74-.13-.75-.63,0-.06,0-.12-.06-.18l-2-6.35c1.73.66,3.4,1.3,5.09,1.91.24.09.23.2.23.37,0,1,0,2,0,3,0,.29,0,.49-.34.62a.79.79,0,0,0-.45.52,6.4,6.4,0,0,0-.06,1.8,7,7,0,0,0,1.29.05c.11,0,.22,0,.34,0s.29-.08.28-.3Q17.2,15.9,17.21,15.22ZM10,9.19c.29.9.51,1.62.77,2.46a13.65,13.65,0,0,0-1.28-1.12c-.39-.28-.3-.45,0-.71A4.14,4.14,0,0,0,10,9.19ZM8.75,5.87a.91.91,0,0,1,.83.9.9.9,0,0,1-.8.93,1.08,1.08,0,0,1-.93-.89A1.09,1.09,0,0,1,8.75,5.87ZM7.66,8.75c.08-.33.13-.61.61-.32a1.43,1.43,0,0,0,1.07,0c.09,0,.27-.28.36,0s.27.38,0,.62-.7.5-1,.86c-.34-.25-.64-.52-.95-.79C7.71,9,7.61,8.92,7.66,8.75Zm-.16.61.94.79a20.13,20.13,0,0,1-1.58,1.4A16.74,16.74,0,0,1,7.5,9.36Zm-1.26,4c.22-.67.23-.67.84-.32l1.3.77L5.6,15.42C5.82,14.69,6,14,6.24,13.33Zm-.35,2.38,2.74-1.63s.09-.11.2-.05c.88.55,1.76,1.08,2.76,1.68ZM11.13,13l.78,2.46L9.16,13.81a14.43,14.43,0,0,1,1.7-1.05C11.05,12.65,11.08,12.82,11.13,13Zm-.26-.67c-.71.41-1.36.78-2,1.18a.24.24,0,0,1-.31,0c-.54-.35-1.08-.68-1.64-1-.17-.09-.38-.2-.05-.45.65-.5,1.24-1.09,1.85-1.64Zm5-2.7c0-.23.16-.36.43-.35s.33.07.33.33-.11.42-.34.43A.4.4,0,0,1,15.87,9.6Z"/></g></g></svg>