<svg xmlns="http://www.w3.org/2000/svg" viewBox="0 0 10.73 17.3"><defs><style>.cls-1{fill:#010101;}</style></defs><title>Recurso 20</title><g id="Capa_2" data-name="Capa 2"><g id="Dados_E_P" data-name="Dados E&amp;P"><path class="cls-1" d="M10.3,14.08c0-.64,0-1.28,0-1.94l-.65.26a10.94,10.94,0,0,1-2.14.41c-.75.09-1.51.09-2.26.14a11.8,11.8,0,0,1-1.31-.08c-.31,0-.37.08-.37.37,0,1,0,2,0,3,0,.26-.07.32-.32.32s-.75-.11-1.12-.14-.51-.26-.5-.66c0-.79,0-1.59,0-2.39,0-.53,0-.91-.67-1-.18,0-.35-.17-.59-.3,0,.73,0,1.44,0,2.13a1.06,1.06,0,0,1-.26,1,.72.72,0,0,0,.06,1,2.06,2.06,0,0,0,1,.61,14.17,14.17,0,0,0,3.42.47,16.43,16.43,0,0,0,2.62-.08,10.43,10.43,0,0,0,2.59-.51c.72-.27,1.08-1,.69-1.5A1.62,1.62,0,0,1,10.3,14.08Z"/><path class="cls-1" d="M.07,10.49s0,.15,0,.23c0,.54.32,1,1,1.2a10.83,10.83,0,0,0,2.19.4,12.94,12.94,0,0,0,2.4.14A14.39,14.39,0,0,0,8,12.31a6.29,6.29,0,0,0,2.28-.69.9.9,0,0,0,.22-1.39.63.63,0,0,1-.17-.51V7.29a9.88,9.88,0,0,1-4.19.79c-.71,0-1.41,0-2.11,0-.33,0-.44.06-.43.41,0,.95,0,1.89,0,2.83,0,.4-.14.47-.46.42s-.7-.15-1-.19-.43-.14-.43-.47c0-1,0-2,0-3,0-.13.13-.33-.16-.36a2.82,2.82,0,0,1-1-.4c0,.31,0,.58,0,.86a6,6,0,0,0,0,.95C.4,9.59.58,10.12.07,10.49Z"/><path class="cls-1" d="M.45,2.71a15.33,15.33,0,0,0,0,1.66c0,.43.12.89-.3,1.24a.45.45,0,0,0-.1.3c0,.59.28,1,1.14,1.21a13.38,13.38,0,0,0,4.32.47,11.58,11.58,0,0,0,3-.2,3.28,3.28,0,0,0,2-.83.75.75,0,0,0,.06-1,1.24,1.24,0,0,1-.28-1c0-.62,0-1.25,0-1.87a.53.53,0,0,1,.07-.36C11,1.53,10.73,1,9.74.59A13.86,13.86,0,0,0,6,0a16.37,16.37,0,0,0-3.49.2A4.94,4.94,0,0,0,.62.78c-.48.3-.9.88-.33,1.47A.53.53,0,0,1,.45,2.71Zm3.13,4c0,.18,0,.28-.23.25-.45-.07-.9-.11-1.33-.22-.11,0-.37,0-.36-.26,0-1.18,0-2.36,0-3.53.57.1,1.1.19,1.64.26.18,0,.29,0,.29.25C3.57,4.51,3.58,5.6,3.58,6.68ZM7.87.89c.29,0,.6-.09.88.08.07,0,.22,0,.19.13a.21.21,0,0,1-.2.17H7.88c-.19,0-.5.09-.52-.16S7.66.87,7.87.89ZM.76,1.45c.19-.26.24.06.33.11A4.24,4.24,0,0,0,2.63,2a14.26,14.26,0,0,0,3.45.19,6.79,6.79,0,0,0,3.64-.81c.17-.12.22.05.31.12s.06.17,0,.27a1.81,1.81,0,0,1-1.12.51,12.87,12.87,0,0,1-3.31.3,13.65,13.65,0,0,1-4.35-.48A1.27,1.27,0,0,1,.86,2,.33.33,0,0,1,.76,1.45Z"/></g></g></svg>