<svg xmlns="http://www.w3.org/2000/svg" viewBox="0 0 22.51 25.1"><defs><style>.cls-1{fill:#010101;}</style></defs><title>Recurso 25</title><g id="Capa_2" data-name="Capa 2"><g id="Dados_E_P" data-name="Dados E&amp;P"><path class="cls-1" d="M1,2.3c1,.38.33-.77.65-1.13S2.48.56,2.61,0H1.2c0,.11,0,.28-.05.31A1.2,1.2,0,0,0,1,2.3Z"/><path class="cls-1" d="M2.45,23.33a.86.86,0,0,1,.95.28,2.55,2.55,0,0,0,2,.4c2.27,0,4.67-.52,6.79.25a14.16,14.16,0,0,0,9.07.18c-2.46-2.75-2.46-2.75-2.46-5.87a6,6,0,0,0,0-1c-.29-1.51.37-2,1.78-1.74s2-.15,2-1.66c0-2.08.1-2.08-2.1-2a4,4,0,0,1-.95-.2h0l0,0h0c.05-1.65-1.18-3.05-.93-4.81,0-.39.72-2.06-.88-1.91-.94.09-1.46-.81-2.35-.65-.54.1-1.08.09-1.19.78-.27,1.79-1.86.84-2.79,1.26s-1-.72-1.39-1.24A4.88,4.88,0,0,1,9.27,3.6c-.13-.59-.41-1-1-1a45.12,45.12,0,0,0-5.93.05c-1.09.17-1.52.52-.75,1.69.64,1,1.62,2.35,1.19,3.28-.64,1.42,0,2.3.5,3.3.61,1.2.89,2.64,0,3.43-2,1.73-2.1,4.16-2.93,6.33a3.65,3.65,0,0,0-.07,2.84C.62,24.15,1.71,23.65,2.45,23.33Z"/></g></g></svg>