<svg xmlns="http://www.w3.org/2000/svg" width="22.515" height="28.084" viewBox="0 0 22.515 28.084">
  <g id="Group_1875" data-name="Group 1875" transform="translate(-420.98 -2844.073)">
    <line id="Line_1195" data-name="Line 1195" transform="translate(421.319 2850.809)" fill="#242424"/>
    <line id="Line_1196" data-name="Line 1196" transform="translate(443.156 2850.809)" fill="#242424"/>
    <path id="Path_3096" data-name="Path 3096" d="M439.915,2847.149h-1.8v1.047a1.379,1.379,0,0,1-2.714,0v-1.047h-6.331v1.047a1.381,1.381,0,0,1-2.717,0v-1.047h-1.8a3.238,3.238,0,0,0-3.24,3.238h21.837A3.237,3.237,0,0,0,439.915,2847.149Z" fill="none" stroke="#b21320" stroke-miterlimit="10" stroke-width="0.678"/>
    <path id="Path_3097" data-name="Path 3097" d="M421.319,2851.64v20.178h21.837V2851.64Zm15.431,4.575h1.276v11.026H436.58v-9.635h-.034l-1.912,1.035-.291-1.136Zm-10.771,9.312a4.986,4.986,0,0,0,2.438.7c1.915,0,2.514-1.225,2.5-2.139-.017-1.544-1.409-2.2-2.849-2.2h-.831v-1.119h.831c1.087,0,2.455-.561,2.455-1.869,0-.88-.557-1.659-1.929-1.659a4.037,4.037,0,0,0-2.2.731l-.391-1.09a5.248,5.248,0,0,1,2.887-.845c2.167,0,3.151,1.288,3.151,2.627a2.73,2.73,0,0,1-2.039,2.6v.034a2.866,2.866,0,0,1,2.464,2.832c0,1.765-1.374,3.306-4.019,3.306a5.658,5.658,0,0,1-2.867-.741Z" fill="none" stroke="#b21320" stroke-miterlimit="10" stroke-width="0.678"/>
    <path id="Path_3098" data-name="Path 3098" d="M426.94,2848.2c0,.293.356.543.77.543s.774-.25.774-.543v-3.238c0-.3-.351-.546-.774-.546s-.77.25-.77.546Z" fill="none" stroke="#b21320" stroke-miterlimit="10" stroke-width="0.678"/>
    <path id="Path_3099" data-name="Path 3099" d="M435.994,2848.2c0,.293.35.543.767.543s.774-.25.774-.543v-3.238c0-.3-.357-.546-.774-.546s-.767.25-.767.546Z" fill="none" stroke="#b21320" stroke-miterlimit="10" stroke-width="0.678"/>
  </g>
</svg>
