<svg xmlns="http://www.w3.org/2000/svg" width="23.952" height="21.897" viewBox="0 0 23.952 21.897">
  <g id="Group_1689" data-name="Group 1689" transform="translate(-553.828 -2879.833)">
    <path id="Path_2806" data-name="Path 2806" d="M577.777,2880.3a.439.439,0,0,1-.433.232q-11.541-.006-23.081,0a.439.439,0,0,1-.433-.232c0-.138,0-.277,0-.415,0-.043.008-.057.051-.049a.423.423,0,0,0,.061,0q11.863,0,23.727,0c.092,0,.12.02.112.112C577.77,2880.063,577.777,2880.181,577.777,2880.3Z" fill="#464749"/>
    <path id="Path_2807" data-name="Path 2807" d="M570.471,2901.73c-.522-.275-1.043-.552-1.565-.826q-1.48-.779-2.961-1.555a.259.259,0,0,0-.272-.005q-2.241,1.179-4.486,2.353c-.018.01-.034.022-.051.033h-.244a.411.411,0,0,1-.224-.274.357.357,0,0,1,.226-.4q.816-.429,1.633-.855,1.46-.766,2.921-1.529c.074-.039.1-.071.044-.144a.289.289,0,0,1-.039-.176c0-.578,0-1.156,0-1.735a.35.35,0,1,1,.7,0c0,.578,0,1.157,0,1.735a.307.307,0,0,1-.045.186c-.048.066-.022.094.041.127q1.359.708,2.716,1.42c.606.317,1.2.649,1.819.947a.376.376,0,0,1,.03.7Z" fill="#464749"/>
    <path id="Path_2808" data-name="Path 2808" d="M565.8,2894.9h-9.555a1.028,1.028,0,0,1-1.044-.847.75.75,0,0,1-.015-.157V2882.26a.352.352,0,0,1,.682-.149.568.568,0,0,1,.018.2q0,5.67,0,11.338c0,.457.084.541.541.541h18.755c.053,0,.106,0,.158,0a.348.348,0,0,0,.37-.368c0-.053,0-.106,0-.159q0-5.67,0-11.339a.835.835,0,0,1,.012-.194.35.35,0,0,1,.687.077c0,.029,0,.057,0,.086v11.546a1.027,1.027,0,0,1-.853,1.039,1.322,1.322,0,0,1-.243.014Z" fill="#464749"/>
    <path id="Path_2809" data-name="Path 2809" d="M572.247,2885.147a1,1,0,0,1-.093.129l-4.613,4.614c-.031.031-.062.064-.1.094a.357.357,0,0,1-.551,0c-.2-.2-.4-.4-.606-.6l-3.109-3.111c-.137-.136-.136-.135-.28-.015l-3.66,3.049a.393.393,0,0,1-.369.111.333.333,0,0,1-.252-.258.345.345,0,0,1,.124-.361q.437-.364.872-.728,1.577-1.314,3.153-2.628a.384.384,0,0,1,.617.031l3.672,3.671c.115.115.116.115.227,0l4.388-4.388a.264.264,0,0,0,.085-.1c-.041-.03-.087-.015-.129-.015-.8,0-1.6,0-2.4,0a.349.349,0,0,1-.356-.289.357.357,0,0,1,.225-.391.487.487,0,0,1,.181-.02h2.981c.122,0,.245,0,.367,0a.344.344,0,0,1,.364.369q0,1.692,0,3.384a.35.35,0,1,1-.7-.008q0-1.185,0-2.37v-.132Z" fill="#464749"/>
  </g>
</svg>
