<svg xmlns="http://www.w3.org/2000/svg" width="19.569" height="18.925" viewBox="0 0 19.569 18.925">
  <g id="Group_1687" data-name="Group 1687" transform="translate(-555.082 -2836.891)">
    <path id="Path_2798" data-name="Path 2798" d="M569.485,2841.948v-4.8l4.906,4.8Z" fill="none" stroke="#464749" stroke-linecap="round" stroke-linejoin="round" stroke-width="0.519"/>
    <path id="Path_2799" data-name="Path 2799" d="M560.587,2846.511v8.6a.451.451,0,0,0,.456.447h12.891a.452.452,0,0,0,.457-.447v-13.162l-4.906-4.8h-8.442a.452.452,0,0,0-.456.447v3.2" fill="none" stroke="#464749" stroke-linecap="round" stroke-linejoin="round" stroke-width="0.519"/>
    <g id="Group_1685" data-name="Group 1685">
      <line id="Line_1047" data-name="Line 1047" x1="4.719" transform="translate(562.542 2852.451)" fill="none" stroke="#464749" stroke-linecap="round" stroke-linejoin="round" stroke-width="0.519"/>
      <line id="Line_1048" data-name="Line 1048" x1="2.528" transform="translate(569.907 2852.451)" fill="none" stroke="#464749" stroke-linecap="round" stroke-linejoin="round" stroke-width="0.519"/>
      <line id="Line_1049" data-name="Line 1049" x1="1.805" transform="translate(562.542 2850.418)" fill="none" stroke="#464749" stroke-linecap="round" stroke-linejoin="round" stroke-width="0.519"/>
      <line id="Line_1050" data-name="Line 1050" x1="3.602" transform="translate(568.833 2850.418)" fill="none" stroke="#464749" stroke-linecap="round" stroke-linejoin="round" stroke-width="0.519"/>
      <line id="Line_1051" data-name="Line 1051" x1="0.143" transform="translate(562.471 2848.386)" fill="none" stroke="#464749" stroke-linecap="round" stroke-linejoin="round" stroke-width="0.519"/>
      <line id="Line_1052" data-name="Line 1052" x1="4.599" transform="translate(567.837 2848.386)" fill="none" stroke="#464749" stroke-linecap="round" stroke-linejoin="round" stroke-width="0.519"/>
      <line id="Line_1053" data-name="Line 1053" x1="6.631" transform="translate(565.804 2846.354)" fill="none" stroke="#464749" stroke-linecap="round" stroke-linejoin="round" stroke-width="0.519"/>
      <line id="Line_1054" data-name="Line 1054" x1="8.356" transform="translate(564.079 2844.322)" fill="none" stroke="#464749" stroke-linecap="round" stroke-linejoin="round" stroke-width="0.519"/>
      <line id="Line_1055" data-name="Line 1055" x1="5.792" transform="translate(562.542 2842.29)" fill="none" stroke="#464749" stroke-linecap="round" stroke-linejoin="round" stroke-width="0.519"/>
      <line id="Line_1056" data-name="Line 1056" x1="5.562" transform="translate(562.542 2840.257)" fill="none" stroke="#464749" stroke-linecap="round" stroke-linejoin="round" stroke-width="0.519"/>
    </g>
    <g id="Group_1686" data-name="Group 1686">
      <path id="Path_2800" data-name="Path 2800" d="M567.347,2848.973l1.743,3.629-3.526-1.943-10.223-10.809,1.783-1.686Z" fill="none" stroke="#464749" stroke-linecap="round" stroke-linejoin="round" stroke-width="0.519"/>
      <line id="Line_1057" data-name="Line 1057" y1="1.66" x2="1.755" transform="translate(557.027 2839.973)" fill="none" stroke="#464749" stroke-linecap="round" stroke-linejoin="round" stroke-width="0.519"/>
      <line id="Line_1058" data-name="Line 1058" y1="1.66" x2="1.755" transform="translate(557.712 2840.697)" fill="none" stroke="#464749" stroke-linecap="round" stroke-linejoin="round" stroke-width="0.519"/>
      <path id="Path_2801" data-name="Path 2801" d="M565.564,2850.659l.5-1.261,1.287-.425" fill="none" stroke="#464749" stroke-linecap="round" stroke-linejoin="round" stroke-width="0.519"/>
      <line id="Line_1059" data-name="Line 1059" x1="7.43" y1="7.856" transform="translate(558.63 2841.542)" fill="none" stroke="#464749" stroke-linecap="round" stroke-linejoin="round" stroke-width="0.519"/>
      <line id="Line_1060" data-name="Line 1060" y1="0.316" x2="0.334" transform="translate(568.146 2851.622)" fill="none" stroke="#464749" stroke-linecap="round" stroke-linejoin="round" stroke-width="0.519"/>
    </g>
  </g>
</svg>
