<svg xmlns="http://www.w3.org/2000/svg" width="13.304" height="8.87" viewBox="0 0 13.304 8.87">
  <g id="Group_1839" data-name="Group 1839" transform="translate(-696.486 -2653.708)">
    <rect id="Rectangle_1565" data-name="Rectangle 1565" width="13.304" height="8.87" transform="translate(696.486 2653.708)" fill="#c0051d"/>
    <rect id="Rectangle_1566" data-name="Rectangle 1566" width="13.304" height="4.435" transform="translate(696.486 2658.142)" fill="#040505"/>
    <path id="Path_3026" data-name="Path 3026" d="M702.379,2657.1h.58l.179-.551.18.551h.58l-.47.341.18.552-.47-.341-.469.341.179-.552Z" fill="#ffcb00"/>
    <path id="Path_3027" data-name="Path 3027" d="M705.433,2657.916a2.272,2.272,0,0,1,0,.452l-.441-.043a1.851,1.851,0,0,0,0-.365l.441-.044m-.088.9a2.373,2.373,0,0,1-.173.418l-.391-.21a1.843,1.843,0,0,0,.14-.337l.424.129m-.424.793a2.305,2.305,0,0,1-.32.32l-.281-.343a1.861,1.861,0,0,0,.258-.258l.343.281m-.7.571a2.388,2.388,0,0,1-.418.173l-.129-.424a1.844,1.844,0,0,0,.337-.14l.21.391m-.861.261a2.3,2.3,0,0,1-.453,0l.044-.441a1.86,1.86,0,0,0,.365,0l.044.441m-.9-.088a2.387,2.387,0,0,1-.418-.173l.209-.391a1.883,1.883,0,0,0,.338.14l-.129.424m1.339-4.413a2.314,2.314,0,0,1,.418.173l-.21.391a1.762,1.762,0,0,0-.337-.14l.129-.424m.793.424a2.351,2.351,0,0,1,.32.319l-.343.282a1.809,1.809,0,0,0-.258-.258l.281-.343m.571.695a2.343,2.343,0,0,1,.173.418l-.424.129a1.891,1.891,0,0,0-.14-.338Z" fill="#ffcb00"/>
    <path id="Path_3028" data-name="Path 3028" d="M704.782,2660.356l.215-.253c.114.11.267.218.378.316a1.355,1.355,0,0,1,.264.292c.1.164-.012.35-.169.241-.085-.059-.138-.218-.268-.35a.7.7,0,0,0-.414-.209C704.776,2660.391,704.773,2660.367,704.782,2660.356Z" fill="#ffcb00"/>
    <path id="path13009" d="M705.1,2660.28a.031.031,0,0,1-.015.026.031.031,0,0,1-.03,0,.031.031,0,0,1-.015-.026.03.03,0,0,1,.015-.026.032.032,0,0,1,.03,0,.03.03,0,0,1,.015.026Z" fill="#040505"/>
    <path id="Path_3029" data-name="Path 3029" d="M703.36,2656.037l-.042.395a1.725,1.725,0,1,1-1.27,3.042l-.253.308a2.105,2.105,0,0,0,1.343.49,2.123,2.123,0,0,0,.222-4.235Z" fill="#ffcb00"/>
    <path id="Path_3030" data-name="Path 3030" d="M703.327,2659.557l.6.354.13.505.687-.052.3-.354-1.119-.776Z" fill="#040505"/>
    <path id="Path_3031" data-name="Path 3031" d="M704.755,2660.321c-.77-.512-1.26-.788-2-1.208a.892.892,0,0,1-.385-1.272c.022.455,1.82,1.7,2.58,2.247Z" fill="#ffcb00"/>
    <path id="path11763" d="M702.875,2658.66a23.748,23.748,0,0,0,2.005,1.518" fill="none" stroke="#040505" stroke-linecap="round" stroke-width="0.044"/>
    <g id="Group_1837" data-name="Group 1837">
      <path id="path13009-2" data-name="path13009" d="M705.321,2660.471a.03.03,0,0,1-.015.026.033.033,0,0,1-.03,0,.029.029,0,0,1-.014-.026.03.03,0,0,1,.014-.026.031.031,0,0,1,.03,0,.031.031,0,0,1,.015.026Z" fill="#040505"/>
    </g>
    <g id="Group_1838" data-name="Group 1838">
      <path id="path13009-3" data-name="path13009" d="M705.514,2660.667a.031.031,0,0,1-.015.026.033.033,0,0,1-.03,0,.032.032,0,0,1-.015-.026.03.03,0,0,1,.015-.026.031.031,0,0,1,.03,0,.03.03,0,0,1,.015.026Z" fill="#040505"/>
    </g>
  </g>
</svg>
