<svg id="lectern" xmlns="http://www.w3.org/2000/svg" width="14.996" height="14.996" viewBox="0 0 14.996 14.996">
  <g id="Group_185" data-name="Group 185" transform="translate(4.741)">
    <g id="Group_184" data-name="Group 184">
      <path id="Path_155" data-name="Path 155" d="M165.932,3.153a1.851,1.851,0,1,0-2.629,0,2.8,2.8,0,0,0-1.443,2.024h5.514A2.8,2.8,0,0,0,165.932,3.153Z" transform="translate(-161.86)" fill="#c10416"/>
    </g>
  </g>
  <g id="Group_187" data-name="Group 187" transform="translate(0 8.941)">
    <g id="Group_186" data-name="Group 186">
      <path id="Path_156" data-name="Path 156" d="M13.518,308.422a1.851,1.851,0,1,0-2.629,0,2.813,2.813,0,0,0-1.038.961,2.813,2.813,0,0,0-1.038-.961,1.851,1.851,0,1,0-2.629,0,2.812,2.812,0,0,0-1.038.961,2.814,2.814,0,0,0-1.038-.961,1.851,1.851,0,1,0-2.629,0A2.8,2.8,0,0,0,0,310.885a.439.439,0,0,0,.439.439H14.557a.439.439,0,0,0,.439-.439A2.8,2.8,0,0,0,13.518,308.422Z" transform="translate(0 -305.269)" fill="#c10416"/>
    </g>
  </g>
  <g id="Group_189" data-name="Group 189" transform="translate(3.294 6.055)">
    <g id="Group_188" data-name="Group 188">
      <path id="Path_157" data-name="Path 157" d="M120.435,206.744h-7.529a.439.439,0,0,0,0,.879h.972v1.913a2.747,2.747,0,0,1,.439.562,2.729,2.729,0,0,1,4.706,0,2.748,2.748,0,0,1,.439-.562v-1.913h.972a.439.439,0,1,0,0-.879Z" transform="translate(-112.467 -206.744)" fill="#c10416"/>
    </g>
  </g>
</svg>
