<svg xmlns="http://www.w3.org/2000/svg" width="44.16" height="23.304" viewBox="0 0 44.16 23.304">
  <g id="Group_1877" data-name="Group 1877" transform="translate(-411.774 -2904.146)">
    <g id="Group_1876" data-name="Group 1876">
      <path id="Path_3100" data-name="Path 3100" d="M442.6,2915.158c0-3.9-4.09-7.2-9.756-8.366a22.287,22.287,0,0,0-4.475-.447c-7.859,0-14.231,3.945-14.231,8.813,0,2.487,1.666,4.732,4.342,6.334l-5.392,5.166,10.018-3.312a22.011,22.011,0,0,0,5.263.625,19.975,19.975,0,0,0,9.237-2.112C440.664,2920.243,442.6,2917.841,442.6,2915.158Z" fill="none" stroke="#ae0721" stroke-miterlimit="10" stroke-width="0.678"/>
      <path id="Path_3101" data-name="Path 3101" d="M455.6,2913.336c0-4.888-5.784-8.851-12.919-8.851a17,17,0,0,0-7.882,1.84c5.181,1.2,8.921,4.6,8.921,8.62,0,2.765-1.773,5.239-4.566,6.9a18.5,18.5,0,0,0,3.527.337c.614,0,1.218-.031,1.81-.088l3.1,2.468-.876-2.823C451.869,2920.582,455.6,2917.258,455.6,2913.336Z" fill="none" stroke="#ae0721" stroke-miterlimit="10" stroke-width="0.678"/>
    </g>
    <text id="_" data-name="?" transform="translate(423.685 2918.585)" fill="#ae0721" font-size="11.744" font-family="FranklinGothic-Heavy, Franklin Gothic" font-weight="800"><tspan x="0" y="0">?</tspan></text>
  </g>
</svg>
