<svg xmlns="http://www.w3.org/2000/svg" width="24.717" height="19.563" viewBox="0 0 24.717 19.563">
  <g id="Group_1688" data-name="Group 1688" transform="translate(-554.156 -2924.673)">
    <rect id="Rectangle_1446" data-name="Rectangle 1446" width="24.049" height="18.895" transform="translate(554.49 2925.007)" fill="none" stroke="#464749" stroke-linecap="round" stroke-linejoin="round" stroke-width="0.668"/>
    <rect id="Rectangle_1447" data-name="Rectangle 1447" width="15.225" height="20.379" transform="translate(576.703 2926.842) rotate(90)" fill="none" stroke="#464749" stroke-linecap="round" stroke-linejoin="round" stroke-width="0.668"/>
    <rect id="Rectangle_1448" data-name="Rectangle 1448" width="24.049" height="18.895" transform="translate(554.49 2925.007)" fill="none" stroke="#464749" stroke-linecap="round" stroke-linejoin="round" stroke-width="0.668"/>
    <rect id="Rectangle_1449" data-name="Rectangle 1449" width="15.225" height="20.379" transform="translate(576.703 2926.842) rotate(90)" fill="none" stroke="#464749" stroke-linecap="round" stroke-linejoin="round" stroke-width="0.668"/>
    <path id="Path_2802" data-name="Path 2802" d="M556.325,2937.469c1.781-2.224,5.174-6.428,5.558-6.684.524-.35,7.427,8.388,7.427,8.388s3.67-4.282,4.107-4.544l3.189,3.539" fill="none" stroke="#464749" stroke-linecap="round" stroke-linejoin="round" stroke-width="0.668"/>
    <ellipse id="Ellipse_69" data-name="Ellipse 69" cx="1.791" cy="2.097" rx="1.791" ry="2.097" transform="translate(560.485 2934.716)" fill="none" stroke="#464749" stroke-linecap="round" stroke-linejoin="round" stroke-width="0.668"/>
    <path id="Path_2803" data-name="Path 2803" d="M574.727,2941.969s-1.223-2.8-5.417-2.8a7.224,7.224,0,0,0-6.029,2.883" fill="none" stroke="#464749" stroke-linecap="round" stroke-linejoin="round" stroke-width="0.668"/>
    <line id="Line_1061" data-name="Line 1061" y2="3.146" transform="translate(562.276 2938.91)" fill="none" stroke="#464749" stroke-linecap="round" stroke-linejoin="round" stroke-width="0.668"/>
    <path id="Path_2804" data-name="Path 2804" d="M556.466,2938.648l2.8.437,1.573,2.883" fill="none" stroke="#464749" stroke-linecap="round" stroke-linejoin="round" stroke-width="0.668"/>
    <path id="Path_2805" data-name="Path 2805" d="M571.917,2936.192l-2.869-3.048-2.589,2.458" fill="none" stroke="#464749" stroke-linecap="round" stroke-linejoin="round" stroke-width="0.668"/>
  </g>
</svg>
