<svg xmlns="http://www.w3.org/2000/svg" width="29.472" height="29.473" viewBox="0 0 29.472 29.473">
  <g id="Group_1880" data-name="Group 1880" transform="translate(-322.261 -2901.938)">
    <g id="Group_1879" data-name="Group 1879">
      <path id="Path_3103" data-name="Path 3103" d="M342.09,2901.938a9.64,9.64,0,0,0-7.146,16.114l-2.012,2.012a2.053,2.053,0,0,0-2.522.3l-7.549,7.548a2.051,2.051,0,1,0,2.9,2.9l7.548-7.548a2.05,2.05,0,0,0,.3-2.523l2.013-2.012a9.642,9.642,0,1,0,6.47-16.789Zm-17.779,28.518a1.1,1.1,0,0,1-.775-1.87l.127-.127,1.549,1.549-.126.127a1.088,1.088,0,0,1-.775.321Zm8.323-7.869-6.746,6.746-1.55-1.549,6.747-6.747a1.1,1.1,0,0,1,1.549,1.55Zm9.456-2.316a8.689,8.689,0,1,1,8.688-8.689,8.7,8.7,0,0,1-8.688,8.689Zm0,0" fill="#ae0721"/>
      <path id="Path_3104" data-name="Path 3104" d="M342.09,2906.521c-2.51,0-4.552,1.585-4.552,3.533a2.817,2.817,0,0,0,.2,1.049.477.477,0,1,0,.887-.352,1.875,1.875,0,0,1-.135-.7c0-1.421,1.613-2.578,3.6-2.578s3.6,1.157,3.6,2.578c0,1.308-1.366,2.409-3.178,2.561a.987.987,0,0,0-.9.98v.533a.477.477,0,0,0,.955,0v-.533a.029.029,0,0,1,.021-.029c2.311-.194,4.053-1.7,4.053-3.512,0-1.948-2.042-3.533-4.551-3.533Zm0,0" fill="#ae0721"/>
      <path id="Path_3105" data-name="Path 3105" d="M342.09,2915.752a.922.922,0,1,0,.923.922.924.924,0,0,0-.923-.922Zm0,0" fill="#ae0721"/>
    </g>
  </g>
</svg>
