<svg xmlns="http://www.w3.org/2000/svg" width="30.068" height="30.067" viewBox="0 0 30.068 30.067">
  <g id="Group_1878" data-name="Group 1878" transform="translate(-323.628 -2784.636)">
    <path id="Path_3102" data-name="Path 3102" d="M353.7,2805.405v-.025c0-.011,0-.022,0-.033v-.016l-.005-.029,0-.02-.006-.022-.007-.026-.007-.017-.011-.03,0,0-5.151-11.334v-1.485h.032a1.008,1.008,0,0,0,1.006-1.007v-.077a1,1,0,0,0-.846-.994l-8.505-1.373v-.872a2.046,2.046,0,1,0-3.052,0v.825l-8.511,1.419a1,1,0,0,0-.841.992v.08a1.008,1.008,0,0,0,1.007,1.007h.032v1.485l-5.152,11.334,0,0-.011.03-.006.017-.008.026-.005.022,0,.02,0,.029,0,.016v.074c.03,2,2.514,3.568,5.681,3.568s5.651-1.564,5.681-3.568v-.074l0-.016,0-.029,0-.02,0-.022-.008-.026-.006-.017-.011-.029,0,0-5.152-11.334v-1.485h7.339v10.581a1.007,1.007,0,0,0-.52.881V2811l-3.085.964a1.519,1.519,0,0,0-1.071,1.457v.794a.486.486,0,0,0,.487.487h11.43a.486.486,0,0,0,.487-.487v-.794a1.521,1.521,0,0,0-1.071-1.457l-3.086-.964v-7.175a1.008,1.008,0,0,0-.519-.881v-10.581h7.338v1.485l-5.151,11.334,0,0-.012.029-.006.017-.007.026-.006.022,0,.02,0,.029v.016l0,.033v.041c.031,2,2.515,3.568,5.681,3.568s5.651-1.564,5.681-3.568v-.016Zm-24.385-10.273,4.439,9.766h-8.878Zm0,12.883c-2.255,0-4.2-.941-4.623-2.143h9.247c-.423,1.2-2.369,2.143-4.624,2.143Zm10.423-4.189v7.046H337.59v-7.046a.033.033,0,0,1,.033-.033H339.7a.033.033,0,0,1,.032.033Zm-1.623-1.007v-14.168a2.038,2.038,0,0,0,1.1,0v14.168Zm.552-17.209a1.071,1.071,0,1,1-1.072,1.071,1.072,1.072,0,0,1,1.072-1.071Zm-9.871,5.779a.032.032,0,0,1-.033-.032v-.08a.033.033,0,0,1,.027-.032l8.351-1.391v1.535Zm15.1,22.033v.307H333.434v-.307a.55.55,0,0,1,.387-.527l3.357-1.049h2.968l3.356,1.049a.549.549,0,0,1,.388.527Zm-3.7-23.522,8.35,1.348a.032.032,0,0,1,.027.032v.077a.032.032,0,0,1-.032.032h-8.345Zm7.825,5.232,4.439,9.766h-8.878Zm0,12.883c-2.255,0-4.2-.941-4.623-2.143h9.247c-.422,1.2-2.368,2.143-4.624,2.143Zm0,0" fill="#a10c1f"/>
  </g>
</svg>
