<svg xmlns="http://www.w3.org/2000/svg" width="19.966" height="20.541" viewBox="0 0 19.966 20.541">
  <g id="Group_1228" data-name="Group 1228" transform="translate(-310.951 -5272.342)">
    <path id="Path_2148" data-name="Path 2148" d="M320.891,5277.826v-5.211l5.33,5.211Z" fill="none" stroke="#1a1718" stroke-linecap="round" stroke-linejoin="round" stroke-width="0.545"/>
    <path id="Path_2149" data-name="Path 2149" d="M326.221,5280.09v-2.264l-5.33-5.211h-9.172a.49.49,0,0,0-.5.484v19.027a.49.49,0,0,0,.5.485h14.006a.49.49,0,0,0,.5-.485v-2.234" fill="none" stroke="#1a1718" stroke-linecap="round" stroke-linejoin="round" stroke-width="0.545"/>
    <g id="Group_1227" data-name="Group 1227">
      <line id="Line_815" data-name="Line 815" x1="7.718" transform="translate(313.348 5289.237)" fill="none" stroke="#1a1718" stroke-linecap="round" stroke-linejoin="round" stroke-width="0.545"/>
      <line id="Line_816" data-name="Line 816" x1="5.918" transform="translate(313.348 5287.029)" fill="none" stroke="#1a1718" stroke-linecap="round" stroke-linejoin="round" stroke-width="0.545"/>
      <line id="Line_817" data-name="Line 817" x1="5.588" transform="translate(313.348 5284.821)" fill="none" stroke="#1a1718" stroke-linecap="round" stroke-linejoin="round" stroke-width="0.545"/>
      <line id="Line_818" data-name="Line 818" x1="6.149" transform="translate(313.348 5282.613)" fill="none" stroke="#1a1718" stroke-linecap="round" stroke-linejoin="round" stroke-width="0.545"/>
      <line id="Line_819" data-name="Line 819" x1="8.236" transform="translate(313.348 5280.405)" fill="none" stroke="#1a1718" stroke-linecap="round" stroke-linejoin="round" stroke-width="0.545"/>
      <line id="Line_820" data-name="Line 820" x1="6.293" transform="translate(313.348 5278.197)" fill="none" stroke="#1a1718" stroke-linecap="round" stroke-linejoin="round" stroke-width="0.545"/>
      <line id="Line_821" data-name="Line 821" x1="6.043" transform="translate(313.348 5275.989)" fill="none" stroke="#1a1718" stroke-linecap="round" stroke-linejoin="round" stroke-width="0.545"/>
    </g>
    <circle id="Ellipse_55" data-name="Ellipse 55" cx="5.291" cy="5.291" r="5.291" transform="matrix(0.23, -0.973, 0.973, 0.23, 317.859, 5288.925)" fill="none" stroke="#1a1718" stroke-linecap="round" stroke-linejoin="round" stroke-width="0.545"/>
    <path id="Path_2150" data-name="Path 2150" d="M327.723,5284.179h-2.687v-2.687h-1.625v2.687h-2.687v1.625h2.687v2.687h1.625V5285.8h2.687Z" fill="none" stroke="#1a1718" stroke-linecap="round" stroke-linejoin="round" stroke-width="0.545"/>
  </g>
</svg>
