<svg xmlns="http://www.w3.org/2000/svg" width="26.324" height="22.839" viewBox="0 0 26.324 22.839">
  <g id="Group_1874" data-name="Group 1874" transform="translate(-419.421 -2789.419)">
    <path id="Path_3093" data-name="Path 3093" d="M445.328,2798.551a17.435,17.435,0,0,0-9.351-5.024c.265,1.531-.238,3.428-2.623,5.9-1.646,1.7-3.014,2.3-2.39,6.028-3.515-2.168-4.677-5.412-4.27-7.259a9.642,9.642,0,0,1,3.12-4.755,17.736,17.736,0,0,0-9.976,5.112.762.762,0,0,0-.167.525.744.744,0,0,0,.157.509c2.65,2.893,9.118,9.139,12.175,12.157a.906.906,0,0,0,1.283,0c3.056-3.018,9.4-9.264,12.052-12.157a.744.744,0,0,0,.157-.509A.762.762,0,0,0,445.328,2798.551Zm-9.437,6.606c-1.427,1.1-2.177,1.632-2.537,3.227-2.224-2.04-2.272-4.024-1.725-5.312,1.272-3,2.491-3.038,4.874-6.107-.115-.126-.231-.244-.344-.35.112.1.228.222.345.349l.028-.035C437.93,2798.221,440.414,2801.659,435.891,2805.157Z" fill="none" stroke="#ae0721" stroke-miterlimit="10" stroke-width="0.5"/>
    <path id="Path_3094" data-name="Path 3094" d="M434.9,2803.986c-1.431.9-2.246,1.682-1.976,3.094.328-1.318,1.061-1.765,2.453-2.7,3.948-2.637,2.349-5.147.959-6.394h0C437.656,2799.19,438.921,2801.452,434.9,2803.986Z" fill="none" stroke="#ae0721" stroke-miterlimit="10" stroke-width="0.452"/>
    <path id="Path_3095" data-name="Path 3095" d="M432.665,2798.453c4.779-4.631,1.9-7.051.5-8.889.991,1.9,3.244,4.493-1.174,8.894-1.607,1.6-2.856,2.995-1.666,5.558C429.671,2800.591,431.035,2800.033,432.665,2798.453Z" fill="none" stroke="#ae0721" stroke-miterlimit="10" stroke-width="0.48"/>
  </g>
</svg>
