<svg xmlns="http://www.w3.org/2000/svg" xmlns:xlink="http://www.w3.org/1999/xlink" width="21.271" height="21.271" viewBox="0 0 21.271 21.271">
  <defs>
    <clipPath id="clip-path">
      <rect id="Rectangle_924" data-name="Rectangle 924" width="21.271" height="21.271" transform="translate(298.559 5766.009)" fill="none"/>
    </clipPath>
  </defs>
  <g id="Group_990" data-name="Group 990" transform="translate(-298.559 -5766.009)">
    <g id="Group_989" data-name="Group 989" clip-path="url(#clip-path)">
      <g id="Group_988" data-name="Group 988">
        <path id="Path_1763" data-name="Path 1763" d="M322.315,5761.075v-4.047l-1.405.4.874.51.006.555-1.557.236.134-.638-.693.438-.076.68,1.487,1.862Z" fill="none" stroke="#1a1818" stroke-miterlimit="10" stroke-width="0.815"/>
        <path id="Path_1764" data-name="Path 1764" d="M321.96,5763.122h1.978v-2.046l-2.745.2Z" fill="none" stroke="#1a1818" stroke-miterlimit="10" stroke-width="0.815"/>
        <path id="Path_1765" data-name="Path 1765" d="M327.44,5758.843h-2.547l.034,2.232h2l.518-1.116.088-.445.478,0v-.383l-.584-.075Z" fill="none" stroke="#1a1818" stroke-miterlimit="10" stroke-width="0.815"/>
        <path id="Path_1766" data-name="Path 1766" d="M329.418,5786.355v.435l-.4.322-.153.391v3.386l.344,1.064.206.158,5.231.076v-5.832Z" fill="#e0e1e3" stroke="#edeeef" stroke-miterlimit="10" stroke-width="0.815"/>
        <rect id="Rectangle_923" data-name="Rectangle 923" width="2.959" height="5.856" transform="translate(334.611 5794.994)" fill="#e0e1e3" stroke="#edeeef" stroke-miterlimit="10" stroke-width="0.815"/>
        <path id="Path_1767" data-name="Path 1767" d="M315,5756.61H303.962v-1.035l13.319-9.819.393-1.25.321-.286v.572h.785a9.525,9.525,0,0,1,1.464-1.964c.393-.179,1.393-.143,1.536-.357s.25-.679.535-.75.822.286.857,0-.428-.607-.321-.786.04-.5.323-.464.5.536.5.536l1.036-.179v.536a4.055,4.055,0,0,1,.928.892c.143.322.321.607.536.643a3.081,3.081,0,0,1,.749.464,10.555,10.555,0,0,1-1.392.322c-.429.035-1.214.214-1.25.428a.747.747,0,0,1-.393.536c-.214.107-.178.357-.214.607s-.643.321-.75.5a1.776,1.776,0,0,0-.107.642l-.821-.107s.143.5-.036.643a2.055,2.055,0,0,1-.765.428c-.306.072-.77.036-.806.143s-.214.143.179.393a1.853,1.853,0,0,0,.627.286v5.891a19.376,19.376,0,0,0-2.841.036A25.59,25.59,0,0,0,315,5756.61Z" fill="none" stroke="#1a1818" stroke-miterlimit="10" stroke-width="0.815"/>
        <path id="Path_1768" data-name="Path 1768" d="M313.889,5756.61l-.464-.535h-.857a1.613,1.613,0,0,1-1.178-.643,1.562,1.562,0,0,1-.358-1c-.035-.428.679-1.892.714-2.356a11.826,11.826,0,0,0-.333-1.994" fill="none" stroke="#1a1818" stroke-miterlimit="10" stroke-width="0.815"/>
        <line id="Line_560" data-name="Line 560" x2="2.168" y2="3.051" transform="translate(319.826 5743.24)" fill="none" stroke="#1a1818" stroke-miterlimit="10" stroke-width="0.815"/>
        <path id="Path_1769" data-name="Path 1769" d="M318.177,5749.112h.318v-1.106l2.071-.107" fill="none" stroke="#1a1818" stroke-miterlimit="10" stroke-width="0.815"/>
        <line id="Line_561" data-name="Line 561" x2="2.177" transform="translate(319.016 5751.397)" fill="none" stroke="#1a1818" stroke-miterlimit="10" stroke-width="0.815"/>
        <path id="Path_1770" data-name="Path 1770" d="M307.319,5869.084v-8.962h.714v-1.75h.821v-4.927h.786v-4.213h.642v-1.5h.786v-1.892h.75V5844.2h.821v-.893h.75v-1.535h.928v-5.07h.536v-.786h.821v-.821h.821v-.785h.964v-7.642h.643v-7.426h4.892v-.822h.75v-8.462h.857v-1.607h-.75v-.857h-1v-.717h-2.5v-.809h-2.392v-11.828h-1.035v-.821h-.964v-3.249h.928v-.893h.821v-.785h.786v-.822h.821v-5.855h-.75v-.857h-.928v-3.321h-.893v-1h-1.607v-.75H313.5v-.749H312.6v-.822h-.678v-.928h-2.107v-4.963h-.642v-1.714h-.929v-.75h-.928v-1.607h-.679v-1.606h-.928v-2.571h-.928s.035-1.678,0-1.678h-.822v-1.286" fill="none" stroke="#1a1818" stroke-miterlimit="10" stroke-width="0.815"/>
        <path id="Path_1771" data-name="Path 1771" d="M310.425,5869.084v-8.212h.821v-1.607H312v-2.5h.857v-2.5h.714V5851.7h1.642v-2.464H316v-1.571h.714v-1.75h.75v-1.75h.786v-9.105H320.6V5831.7h.857v-2.464h.714v-.821h.893v-.857h.786v-1.714h.75V5824.2h.821v-.821h.786v-.893h.714v-.75h.964v-1.714h.821v-.857h.75v-15h-1.678v-1.75h-1.714v-1.606h-.786v-3.285h-2.571V5786.6h.786v-9.141h-.928v-1.606h-.786v-1.678h-.786v-.786h-.821v-.857h-2.642V5770h-.786v-.821h-.893v-.821h-.821v-1.678H314.1v-1.642h-.714v-1.678h-.929v-1.678H311.6v-1.643h-.786v-2.928" fill="none" stroke="#1a1818" stroke-miterlimit="10" stroke-width="0.815"/>
        <line id="Line_562" data-name="Line 562" y2="25.11" transform="translate(310.425 5780.854)" fill="none" stroke="#1a1818" stroke-miterlimit="10" stroke-width="0.815"/>
        <path id="Path_1772" data-name="Path 1772" d="M299.821,5757.11v2.856h.928v2.535h.857v2.5h.928v4.106h.75v1.75h1.75v1.678H306v1.571H307.6v3.356h1.714v3.392" fill="none" stroke="#1a1818" stroke-miterlimit="10" stroke-width="0.815"/>
        <path id="Path_1773" data-name="Path 1773" d="M295.643,5757.11V5760h1v3.392h.786v6.712h1.678v5.82h1.785v1.678h-.786v3.249h10.319" fill="none" stroke="#1a1818" stroke-miterlimit="10" stroke-width="0.815"/>
        <line id="Line_563" data-name="Line 563" x2="4.106" transform="translate(296.643 5760.859)" fill="none" stroke="#1a1818" stroke-miterlimit="10" stroke-width="0.815"/>
        <line id="Line_564" data-name="Line 564" x2="4.178" transform="translate(297.428 5765.001)" fill="none" stroke="#1a1818" stroke-miterlimit="10" stroke-width="0.815"/>
        <line id="Line_565" data-name="Line 565" x2="4.178" transform="translate(299.106 5770.821)" fill="none" stroke="#1a1818" stroke-miterlimit="10" stroke-width="0.815"/>
        <line id="Line_566" data-name="Line 566" x2="6.713" transform="translate(300.892 5775.927)" fill="none" stroke="#1a1818" stroke-miterlimit="10" stroke-width="0.815"/>
        <line id="Line_567" data-name="Line 567" x2="3.821" transform="translate(305.998 5772.535)" fill="none" stroke="#1a1818" stroke-miterlimit="10" stroke-width="0.815"/>
        <line id="Line_568" data-name="Line 568" x2="4.785" transform="translate(302.534 5765.715)" fill="none" stroke="#1a1818" stroke-miterlimit="10" stroke-width="0.815"/>
        <line id="Line_569" data-name="Line 569" x2="5.819" transform="translate(306.64 5762.645)" fill="none" stroke="#1a1818" stroke-miterlimit="10" stroke-width="0.815"/>
        <line id="Line_570" data-name="Line 570" y2="6.177" transform="translate(316.567 5757.11)" fill="none" stroke="#1a1818" stroke-miterlimit="10" stroke-width="0.815"/>
        <line id="Line_571" data-name="Line 571" x2="6.034" transform="translate(309.818 5769.179)" fill="none" stroke="#1a1818" stroke-miterlimit="10" stroke-width="0.815"/>
        <path id="Path_1774" data-name="Path 1774" d="M312.6,5774.213l13.973.04.015.024" fill="none" stroke="#1a1818" stroke-miterlimit="10" stroke-width="0.815"/>
        <line id="Line_572" data-name="Line 572" x2="5.856" transform="translate(317.638 5779.998)" fill="none" stroke="#1a1818" stroke-miterlimit="10" stroke-width="0.815"/>
        <line id="Line_573" data-name="Line 573" x2="8.891" transform="translate(310.425 5784.068)" fill="none" stroke="#1a1818" stroke-miterlimit="10" stroke-width="0.815"/>
        <line id="Line_574" data-name="Line 574" x2="7.274" transform="translate(323.494 5782.497)" fill="none" stroke="#1a1818" stroke-miterlimit="10" stroke-width="0.815"/>
        <path id="Path_1775" data-name="Path 1775" d="M312.6,5775.035v7.462h-2.178" fill="none" stroke="#1a1818" stroke-miterlimit="10" stroke-width="0.815"/>
        <path id="Path_1776" data-name="Path 1776" d="M310.425,5788.246h3.856v.929h8.427" fill="none" stroke="#1a1818" stroke-miterlimit="10" stroke-width="0.815"/>
        <line id="Line_575" data-name="Line 575" x2="7.534" transform="translate(310.425 5794.994)" fill="none" stroke="#1a1818" stroke-miterlimit="10" stroke-width="0.815"/>
        <line id="Line_576" data-name="Line 576" x2="4.749" transform="translate(317.959 5795.815)" fill="none" stroke="#1a1818" stroke-miterlimit="10" stroke-width="0.815"/>
        <line id="Line_577" data-name="Line 577" x2="5.999" transform="translate(322.708 5790.888)" fill="none" stroke="#1a1818" stroke-miterlimit="10" stroke-width="0.815"/>
        <line id="Line_578" data-name="Line 578" x2="5.481" transform="translate(325.279 5797.529)" fill="none" stroke="#1a1818" stroke-miterlimit="10" stroke-width="0.815"/>
        <line id="Line_579" data-name="Line 579" x2="8.105" transform="translate(317.959 5801.671)" fill="none" stroke="#1a1818" stroke-miterlimit="10" stroke-width="0.815"/>
        <line id="Line_580" data-name="Line 580" x2="7.534" transform="translate(310.425 5800.85)" fill="none" stroke="#1a1818" stroke-miterlimit="10" stroke-width="0.815"/>
        <line id="Line_581" data-name="Line 581" x2="9.891" transform="translate(312.96 5807.527)" fill="none" stroke="#1a1818" stroke-miterlimit="10" stroke-width="0.815"/>
        <line id="Line_582" data-name="Line 582" x2="9.105" transform="translate(320.352 5805.964)" fill="none" stroke="#1a1818" stroke-miterlimit="10" stroke-width="0.815"/>
        <line id="Line_583" data-name="Line 583" x2="5.154" transform="translate(329.457 5804.171)" fill="none" stroke="#1a1818" stroke-miterlimit="10" stroke-width="0.815"/>
        <line id="Line_584" data-name="Line 584" x2="11.349" transform="translate(323.744 5812.455)" fill="none" stroke="#1a1818" stroke-miterlimit="10" stroke-width="0.815"/>
        <line id="Line_585" data-name="Line 585" x2="10.783" transform="translate(312.96 5813.312)" fill="none" stroke="#1a1818" stroke-miterlimit="10" stroke-width="0.815"/>
        <line id="Line_586" data-name="Line 586" x2="5.142" transform="translate(312.96 5819.167)" fill="none" stroke="#1a1818" stroke-miterlimit="10" stroke-width="0.815"/>
        <line id="Line_587" data-name="Line 587" x2="5.713" transform="translate(322.994 5819.239)" fill="none" stroke="#1a1818" stroke-miterlimit="10" stroke-width="0.815"/>
        <line id="Line_588" data-name="Line 588" x2="7.32" transform="translate(318.102 5823.345)" fill="none" stroke="#1a1818" stroke-miterlimit="10" stroke-width="0.815"/>
        <line id="Line_589" data-name="Line 589" x2="5.963" transform="translate(326.921 5822.488)" fill="none" stroke="#1a1818" stroke-miterlimit="10" stroke-width="0.815"/>
        <line id="Line_590" data-name="Line 590" x1="6.748" transform="translate(310.711 5826.666)" fill="none" stroke="#1a1818" stroke-miterlimit="10" stroke-width="0.815"/>
        <line id="Line_591" data-name="Line 591" x2="3.999" transform="translate(317.459 5830.093)" fill="none" stroke="#1a1818" stroke-miterlimit="10" stroke-width="0.815"/>
        <line id="Line_592" data-name="Line 592" x2="3.606" transform="translate(310.711 5836.627)" fill="none" stroke="#1a1818" stroke-miterlimit="10" stroke-width="0.815"/>
        <line id="Line_593" data-name="Line 593" x2="3.928" transform="translate(314.317 5840.77)" fill="none" stroke="#1a1818" stroke-miterlimit="10" stroke-width="0.815"/>
        <line id="Line_594" data-name="Line 594" x2="10.569" transform="translate(305.426 5848.339)" fill="none" stroke="#1a1818" stroke-miterlimit="10" stroke-width="0.815"/>
        <line id="Line_595" data-name="Line 595" x2="2.821" transform="translate(316.709 5847.661)" fill="none" stroke="#1a1818" stroke-miterlimit="10" stroke-width="0.815"/>
        <line id="Line_596" data-name="Line 596" x2="3.142" transform="translate(308.854 5856.765)" fill="none" stroke="#1a1818" stroke-miterlimit="10" stroke-width="0.815"/>
        <line id="Line_597" data-name="Line 597" x1="4.927" transform="translate(303.105 5858.373)" fill="none" stroke="#1a1818" stroke-miterlimit="10" stroke-width="0.815"/>
        <line id="Line_598" data-name="Line 598" x2="6.998" transform="translate(311.246 5860.872)" fill="none" stroke="#1a1818" stroke-miterlimit="10" stroke-width="0.815"/>
        <path id="Path_1777" data-name="Path 1777" d="M322.137,5835.449a3.333,3.333,0,0,1-.072,1.286c-.178.678-.892,1.749-1.035,2.535s.535,1.464.393,2.928a4.024,4.024,0,0,1-1.429,2.463s.679,1.036.572,1.286-.893,1.285-1.036,1.714.393,1.428.357,1.642-.749.571-.892.928a35.125,35.125,0,0,1-1,3.928,3.3,3.3,0,0,0-.536,1.143c-.107.285-.535.142-.535.142v3.357l1.321,2.142-.107,1.678a1.668,1.668,0,0,0-.75.143c-.429.179-.607,1.143-.607,1.143l-1.071.464v1.821l-.429.036a1.647,1.647,0,0,0-.071.464c0,.25-.337,2.392-.337,2.392h-13.2v-8.069h1.428v-7.606h2.321v-8.319h3.143v-5.927h1.5v-2.536h.643v-17.46h2.249v-13.2h-7.6v-2.58H301V5788.46h-3.285v-17.425h-6.927V5757.11H318.9s.733.25.922.322a5.451,5.451,0,0,0,1.084,0s1.37-.25,1.4-.4.429.011.536-.025,1.071.071,1.321,0,.964-.536,1.214-.643,0-.321,0-.428a1.188,1.188,0,0,1,.75-.464h.785v.28l-.509.064a.755.755,0,0,0-.1.478c.064.191.361.812.26.82s-.356.041-.356.136.489.319.356.478-.066.255.028.351.668-.1.764.1.287.414.223.637l-.064.223.479.1v.383s-.415-.1-.51.032-.1.669-.16.8-.447.541-.415.669a2.4,2.4,0,0,1,.128,1.02c-.1.287-.507.7-.445.925a1.608,1.608,0,0,1,0,.574l.317.318-.317.351a4.511,4.511,0,0,0-.192.67c0,.127-.766.669-.574.765a3.666,3.666,0,0,1,.414.255,1.087,1.087,0,0,0-.1.542c.031.287.159.573,0,.7s-.829.064-.67.159.414.224.414.383-.35.319-.223.478.255.478.16.542-.1.488-.1.488a2.808,2.808,0,0,1-.128.5c-.063.128.032.319.1.479s-.064.829.064.924.255,0,.351.16.032.892.1,1.083.387,1.92.387,1.92c.166.249,1.6,2.457,1.685,2.608a10.392,10.392,0,0,0,1.165,1.785c.493.51,4.768,4.622,5.324,5.26s1.7,1.977,2.087,2.391.542.351.765.574,1.722,3.794,2.168,4.5.925,1.052.925,1.626a15.406,15.406,0,0,1-.447,1.849c-.1.638-1.657,6.185-1.88,7.046s-1.116,4.176-1.212,4.654-.127,1.052-.478,1.307a5.268,5.268,0,0,1-.8.566,1.382,1.382,0,0,0-.511.614s-.351,3.188-.351,4.463a14.376,14.376,0,0,1-.27,3.029,10.892,10.892,0,0,1-1.1,2.454c-.319.638-2.263,2.806-2.391,3.38s-.319.978-.446,1-2.04,1.679-2.295,1.774.159,0-.256.1a2.171,2.171,0,0,0-1.052.478c-.127.191-.159,1.148-.319,1.4s-.35.127-.669.35-.513.893-.83,1.148a11.138,11.138,0,0,0-1.816,1.5c-.287.446-1.469,5.356-1.469,5.356" fill="none" stroke="#1a1818" stroke-miterlimit="10" stroke-width="0.815"/>
        <line id="Line_599" data-name="Line 599" x2="7.451" transform="translate(329.418 5786.355)" fill="none" stroke="#1a1818" stroke-miterlimit="10" stroke-width="0.815"/>
        <line id="Line_600" data-name="Line 600" x2="3.424" transform="translate(331.039 5783.488)" fill="none" stroke="#1a1818" stroke-miterlimit="10" stroke-width="0.815"/>
        <line id="Line_601" data-name="Line 601" y2="15.968" transform="translate(331.799 5783.488)" fill="none" stroke="#1a1818" stroke-miterlimit="10" stroke-width="0.815"/>
        <line id="Line_602" data-name="Line 602" y2="10.164" transform="translate(328.867 5787.365)" fill="none" stroke="#1a1818" stroke-miterlimit="10" stroke-width="0.815"/>
        <line id="Line_603" data-name="Line 603" x2="11.562" transform="translate(328.867 5792.187)" fill="none" stroke="#1a1818" stroke-miterlimit="10" stroke-width="0.815"/>
        <line id="Line_604" data-name="Line 604" x2="9.85" transform="translate(328.867 5789.174)" fill="none" stroke="#1a1818" stroke-miterlimit="10" stroke-width="0.815"/>
        <line id="Line_605" data-name="Line 605" x2="11.144" transform="translate(329.135 5794.994)" fill="none" stroke="#1a1818" stroke-miterlimit="10" stroke-width="0.815"/>
        <line id="Line_606" data-name="Line 606" y2="17.815" transform="translate(334.648 5786.355)" fill="none" stroke="#1a1818" stroke-miterlimit="10" stroke-width="0.815"/>
        <line id="Line_607" data-name="Line 607" y2="9.176" transform="translate(337.57 5794.994)" fill="none" stroke="#1a1818" stroke-miterlimit="10" stroke-width="0.815"/>
        <line id="Line_608" data-name="Line 608" x2="3.181" transform="translate(334.648 5803.759)" fill="none" stroke="#1a1818" stroke-miterlimit="10" stroke-width="0.815"/>
        <line id="Line_609" data-name="Line 609" x1="4.967" transform="translate(332.603 5800.85)" fill="none" stroke="#1a1818" stroke-miterlimit="10" stroke-width="0.815"/>
        <line id="Line_610" data-name="Line 610" x2="5.77" transform="translate(331.799 5797.989)" fill="none" stroke="#1a1818" stroke-miterlimit="10" stroke-width="0.815"/>
        <path id="Path_1778" data-name="Path 1778" d="M313.389,5763.359h4.073v.766h.822v.759h.854v.831h1.834v4.292h-3.441" fill="none" stroke="#1a1818" stroke-miterlimit="10" stroke-width="0.815"/>
        <line id="Line_611" data-name="Line 611" x1="5.184" transform="translate(320.972 5766.608)" fill="none" stroke="#1a1818" stroke-miterlimit="10" stroke-width="0.815"/>
        <line id="Line_612" data-name="Line 612" x2="4.645" transform="translate(321.96 5763.122)" fill="none" stroke="#1a1818" stroke-miterlimit="10" stroke-width="0.815"/>
        <line id="Line_613" data-name="Line 613" x2="5.837" transform="translate(321.085 5761.075)" fill="none" stroke="#1a1818" stroke-miterlimit="10" stroke-width="0.815"/>
        <line id="Line_614" data-name="Line 614" y2="4.047" transform="translate(322.315 5757.028)" fill="none" stroke="#1a1818" stroke-miterlimit="10" stroke-width="0.815"/>
        <line id="Line_615" data-name="Line 615" y2="4.465" transform="translate(324.926 5756.61)" fill="none" stroke="#1a1818" stroke-miterlimit="10" stroke-width="0.815"/>
        <line id="Line_616" data-name="Line 616" x2="5.212" transform="translate(322.315 5758.843)" fill="none" stroke="#1a1818" stroke-miterlimit="10" stroke-width="0.815"/>
        <line id="Line_617" data-name="Line 617" y2="2.046" transform="translate(323.938 5761.075)" fill="none" stroke="#1a1818" stroke-miterlimit="10" stroke-width="0.815"/>
        <line id="Line_618" data-name="Line 618" y2="3.487" transform="translate(324.767 5763.122)" fill="none" stroke="#1a1818" stroke-miterlimit="10" stroke-width="0.815"/>
        <path id="Path_1779" data-name="Path 1779" d="M326.2,5766.851" fill="none" stroke="#1a1818" stroke-miterlimit="10" stroke-width="0.815"/>
        <path id="Path_1780" data-name="Path 1780" d="M324.172,5766.851" fill="none" stroke="#1a1818" stroke-miterlimit="10" stroke-width="0.815"/>
        <path id="Path_1781" data-name="Path 1781" d="M343.294,5755.093s-.075.514.2.708a1.281,1.281,0,0,1,.659.809c.116.47,0,.935.31,1.206a12.724,12.724,0,0,1,.93,1.027,2.426,2.426,0,0,0-1.052,1.356c-.459,1.1-.11,1.1-.885,1.647s-1.085.7-1.55.62a2.951,2.951,0,0,0-1.176.019c.013.059.014.485-.3.485a2.87,2.87,0,0,0-1.435.389c-.31.27-.426.735-.775,1.006s-2.015,1.008-2.209,1.124-.426.775-.581.775-1.609-.194-1.638,0-.513.93,0,1.24.929.736.915.93-.9.891-.517,1.356,1.046.969.852,1.318-.228.7-.579.736-.671.543-.671.543l-.028.691" fill="none" stroke="#1a1818" stroke-miterlimit="10" stroke-width="0.815" stroke-dasharray="0.248"/>
        <path id="Path_1782" data-name="Path 1782" d="M326.576,5774.213a9.66,9.66,0,0,0,2.111-.238c.349-.193,1.318-.775,1.589-.581s1.07.736,1.523.5.415-.311.918-.543,1.693-.348,1.931-.5a7.092,7.092,0,0,1,2.22-.194c.267.077.538.116.5.426s.271.388.736.891.3.7.613.853.859-.013,1.014.207.478.723,1,.646,1.8-.388,2.028-.194.7.232.543.5-.737.155-.465.62.542.465.271.658-.62.272-.853.775-.193.513-.116.722.814.441.543.712a6.249,6.249,0,0,0-.62.814.968.968,0,0,1-.969,0c-.62-.271-.853-.627-1.4-.294s-1.279.643-1.279,1.147a3.581,3.581,0,0,0,.775,1.588,2.511,2.511,0,0,1,.077,1.335,2.921,2.921,0,0,1-1.2,1.339c-.426.117-.72-.035-1.2.155l-.477.191" fill="none" stroke="#1a1818" stroke-miterlimit="10" stroke-width="0.815" stroke-dasharray="0.248"/>
        <path id="Path_1783" data-name="Path 1783" d="M337.57,5792.187c-.194-.271-1.055-.623-.512-1.3s.93-1.567.775-1.954-.021-1.124-.476-1.24-1.385-.272-1.385-.272,1.133.04,1.2-.387l.069-.427" fill="none" stroke="#1a1818" stroke-miterlimit="10" stroke-width="0.815" stroke-dasharray="0.248"/>
        <path id="Path_1784" data-name="Path 1784" d="M331.039,5798.593s.93-.475.936-.281a1.121,1.121,0,0,0,.51.736c.349.271.194.581.31.7s1.5-.155,1.912.155a2.445,2.445,0,0,0,1.808.271,4.362,4.362,0,0,1,.775-.736c.28-.155.93,0,1.163-.175s.235-.311.465-.213.658.581.891.543.544-.272.621.038-.426.737,0,.814a1.753,1.753,0,0,1,1.007.407c.155.213,1.007-.213.891-.6s-1.008-1.278-.853-1.705.543-.673.349-1.015-.659-.186-.426-.651.465-.127.349-.761a4.1,4.1,0,0,1-.194-1.123,5.873,5.873,0,0,0-.039-.984" fill="none" stroke="#1a1818" stroke-miterlimit="10" stroke-width="0.815" stroke-dasharray="0.248"/>
        <path id="Path_1785" data-name="Path 1785" d="M324.192,5832.388c-.1.159.61-.141.712,0s.14.607.334.607,1.187.349,1.427,0,.55-.775.627-.891-.233-.117.078-.117a16.628,16.628,0,0,1,2.087.31c-.034.039.732.233.446.5a1.5,1.5,0,0,1-.6.349,5.088,5.088,0,0,1,.969,1.356c.116.465-.155.659,0,.775s1.124-.116,1.395,0a6.44,6.44,0,0,1,.775.465l.659.881s-.775.4-.426.9.542.62.426.93-.44.852-.22,1.046.53.116.569.5a2.522,2.522,0,0,1,0,1.2c-.155.465-.712.93-.569,1.163a2.55,2.55,0,0,1-.284,2.092,9,9,0,0,1-2.093,1.163,8.166,8.166,0,0,0-.852.7s0,1.12-.039,1.335-.465.253-.387.408.765.62.673.737-.751.968-.751.968.611.349.751.737.489.775.528.581.659-.543.7-.349-.232.7,0,.814.969.426,1.086.7-.272,1.356.193,2.247.892,1.008.582,1.318-.969.736-1.008,1.24a7.54,7.54,0,0,0,.116,1.4s.233.7.155.814a2.439,2.439,0,0,0-.155.542s-.852.775-.969.892-.813-.243-1.046.169,0,.954-.232.954-.7-.271-.7,0,.221.194.3.582.5.658,0,1.046-.546.465-.6.93-.48.659.256,1.085,1.279.7,1.279.969a4.577,4.577,0,0,0,.176.865" fill="none" stroke="#1a1818" stroke-miterlimit="10" stroke-width="0.815" stroke-dasharray="0.248"/>
      </g>
    </g>
  </g>
</svg>