<svg xmlns="http://www.w3.org/2000/svg" width="18.608" height="18.609" viewBox="0 0 18.608 18.609">
  <path id="Path_3107" data-name="Path 3107" d="M321.746,2708.292c-.078.219.091.9-.03.994l-.426.7c-.152.69-.012.751-.158,1.311-.1.377-.656,1.848-.674,1.907l-.862.715a.787.787,0,0,1-.7.1c-.317-.158-.284-.087-.4-.224l-.043-1.37v-1.519s-.675-.949-.6-1.148-.3-.213-.52-.5-.394.032-.552.092a4.516,4.516,0,0,1-1.213.247c-.238-.04-.476-.824-.633-1.052s.2-.885.217-1.062.576-.417.656-.516l.318-.751,1.569-.451.775.286.615.367,1.33.25.349-1a5.106,5.106,0,0,0-.687-.2,3.348,3.348,0,0,1-1.071.04c-.417-.1-.24-.4-.24-.4l-.218-.774-.2.337-.815.039c-.078-.019-.357.178-.456.339a2.545,2.545,0,0,1-.931.673c-.419.179-.579-.476-.579-.476l.359-.695.578-.278.394-.279a.9.9,0,0,1,.557-.435c.318-.08.955,0,1.31-.118s.24-.3.24-.3l.825-.392a9.02,9.02,0,0,0-12.984-.681l.124.027,2-.682s.081.3.649-.211.775,0,.923,0l.774.924s-2.2-.031-2.441,0a4.367,4.367,0,0,0-1.013.729s1.013.7,1.46.253,1.131-.209,1.856,0,.049,1.309-.875,1.341a3.431,3.431,0,0,0-1.874,1.043l-1.581.982a.775.775,0,0,0-1.073.417c-.387.775.894,1.1,1.1,1.193s1.074.24,1.253.317.685.13,1.042.218,1.1.6,1.754.78,1.4,1.366,1.4,1.366l-.716,2.145s0,.15-.268.387-1.194,1.386-1.194,1.386l.05,2.112a3.1,3.1,0,0,1-1.152-.362c-.358-.269-.593-1.795-.593-1.795s.03-2.443-.238-2.623a6.454,6.454,0,0,1-1.192-2.085.452.452,0,0,1,.357-.506v-.626l-1.907-.714s-1.132-.388-1.132-.776a.846.846,0,0,0-.2-.472,9.05,9.05,0,1,0,17.91,1.847,8.979,8.979,0,0,0-.071-1.082C321.887,2707.9,321.783,2708.193,321.746,2708.292Zm-3.275-6.194.3.4a3.983,3.983,0,0,1-.654.4c-.16.04-.517.257-.578.257s-.136-.138-.2-.535S318.471,2702.1,318.471,2702.1Z" transform="translate(-303.704 -2699.385)" fill="none" stroke="#b21320" stroke-miterlimit="10" stroke-width="0.509"/>
</svg>
