<svg xmlns="http://www.w3.org/2000/svg" width="53.934" height="53.932" viewBox="0 0 53.934 53.932">
  <g id="world" transform="translate(-0.001 -0.011)">
    <g id="Group_86" data-name="Group 86" transform="translate(0.001 0.011)">
      <g id="Group_85" data-name="Group 85" transform="translate(0 0)">
        <path id="Path_55" data-name="Path 55" d="M207.484,375.1l-.111-.114a14.722,14.722,0,0,0-4-2.657c-.771-.369-2.674-1.124-3.64-.107a7.052,7.052,0,0,0-1.062,1.865c-.189.424-.385.858-.612,1.256a7.341,7.341,0,0,1-1.88,2.243,6.33,6.33,0,0,1-1.144.657,3.152,3.152,0,0,0-.976.607,2.952,2.952,0,0,0-.483,1.262,6.308,6.308,0,0,1-.475,1.442,3.778,3.778,0,0,0-.551,1.642,3.2,3.2,0,0,0,1.465,2.193,12.235,12.235,0,0,0,1.1.69l-.009-.009a26.935,26.935,0,0,0,20.145-5.037,17,17,0,0,1-3.784-2.209A44.3,44.3,0,0,1,207.484,375.1Z" transform="translate(-172.205 -332.445)" fill="#c10416"/>
        <path id="Path_56" data-name="Path 56" d="M52.168,21.7A3.228,3.228,0,0,1,53.9,23.882a6.123,6.123,0,0,1-.522,3.656,3.94,3.94,0,0,0-.408,2.58c.259.679,1.053,1.2,2.5,1.629l.177.05a6.6,6.6,0,0,1,3.791,2.1,6.409,6.409,0,0,1,.979,2.67,6.02,6.02,0,0,0,.517,1.732c.676,1.209,2.326,1.7,3.96,2.091q2.916.709,5.828,1.442a5.794,5.794,0,0,0-.81-.921l-.475-.377c-1.368-1.073-3.07-2.41-3.07-4.7a3.182,3.182,0,0,1,4.957-2.8c.161.075.324.153.489.22.038.016.072.029.1.04-.136-1.1-.353-2.935,1.422-4.081A8.649,8.649,0,0,1,76.2,28.17a12.876,12.876,0,0,0,1.431-.386,15.149,15.149,0,0,0,3.477-1.971c.3-.21.562-.364.829-.522.659-.392,1.283-.761,1.449-1.272.216-.667-.83-1.544-1.472-2.009-1.282-.92-2.538-1.728-3.76-1.556a5.792,5.792,0,0,0-1.381.474,8.758,8.758,0,0,1-1.5.543,3.45,3.45,0,0,1-2.7-.49,2.222,2.222,0,0,1-.951-1.607,3.171,3.171,0,0,1,1.391-2.6,3.159,3.159,0,0,0,.844-.99,1.216,1.216,0,0,0-.628-1.262,3.96,3.96,0,0,0-2.632-.313,11.879,11.879,0,0,1-1.653.072,7.129,7.129,0,0,1-5.177-2.616,26.743,26.743,0,0,0-13.638,9.689c.126-.01.25-.015.373-.015A3.837,3.837,0,0,1,52.168,21.7Z" transform="translate(-44.831 -10.433)" fill="#c10416"/>
        <path id="Path_57" data-name="Path 57" d="M51,14.741A26.95,26.95,0,0,0,21.062.672,5.262,5.262,0,0,0,24.2,1.928a9.948,9.948,0,0,0,1.385-.066,5.7,5.7,0,0,1,3.839.6A3.091,3.091,0,0,1,30.842,6a4.532,4.532,0,0,1-1.363,1.772c-.483.445-.794.755-.773,1.007,0,.03.011.11.153.212a1.536,1.536,0,0,0,1.135.179,7.27,7.27,0,0,0,1.175-.435,7.3,7.3,0,0,1,1.873-.614c2.092-.3,3.945,1.024,5.167,1.9,1.9,1.373,2.636,2.777,2.181,4.174a4.53,4.53,0,0,1-2.306,2.338c-.224.132-.447.262-.64.4a17.179,17.179,0,0,1-3.991,2.251,14.621,14.621,0,0,1-1.642.453,7.108,7.108,0,0,0-2.251.781c-.649.42-.711.952-.553,2.24a1.961,1.961,0,0,1-.466,1.676,2,2,0,0,1-2.3.29c-.177-.072-.37-.162-.563-.253-.7-.33-1-.439-1.364-.29a1.431,1.431,0,0,0-.837,1.33c0,1.358,1.132,2.247,2.331,3.188l.508.4c.034.025,2.055,1.785,1.835,3.248a1.468,1.468,0,0,1-.92,1.147,2.018,2.018,0,0,1-1.3.016q-3.159-.8-6.311-1.563c-1.959-.473-4.139-1.137-5.194-3.027a7.648,7.648,0,0,1-.724-2.3,4.85,4.85,0,0,0-.638-1.9,5.146,5.146,0,0,0-2.769-1.388l-.193-.054c-1.313-.39-3.119-1.1-3.767-2.794a5.487,5.487,0,0,1,.4-3.931A4.611,4.611,0,0,0,7.2,13.946a1.32,1.32,0,0,0-.7-.927,1.908,1.908,0,0,0-.82-.164,3.324,3.324,0,0,0-1.323.29,2,2,0,0,0-.617.419,5.845,5.845,0,0,0-1.153,1.875l-.073.159a27,27,0,0,0,16.5,37.154,3.864,3.864,0,0,1-.593-1.98,5.441,5.441,0,0,1,.767-2.533,4.759,4.759,0,0,0,.314-1,4.513,4.513,0,0,1,.934-2.111A4.777,4.777,0,0,1,22,44.074a4.663,4.663,0,0,0,.809-.451,5.49,5.49,0,0,0,1.376-1.669c.186-.328.354-.7.527-1.085a8.446,8.446,0,0,1,1.423-2.4c1.3-1.366,3.438-1.476,5.881-.3a16.333,16.333,0,0,1,4.54,3.043l.111.113a42.827,42.827,0,0,0,3.809,3.564,16.741,16.741,0,0,0,4.276,2.339A26.949,26.949,0,0,0,51,14.741Z" transform="translate(-0.001 -0.011)" fill="#c10416"/>
      </g>
    </g>
  </g>
</svg>