<svg xmlns="http://www.w3.org/2000/svg" width="15.507" height="14.175" viewBox="0 0 15.507 14.175">
  <g id="message_3_" data-name="message (3)" transform="translate(-17.572 -21.175)">
    <path id="Path_154" data-name="Path 154" d="M165.222,182H152.293A1.29,1.29,0,0,0,151,183.289v9.02a1.29,1.29,0,0,0,1.289,1.289h10.69l2.432,2.392a.645.645,0,0,0,1.1-.459V183.289A1.29,1.29,0,0,0,165.222,182Zm-1.976,8.977h-9.02a.644.644,0,0,1,0-1.289h9.02a.644.644,0,0,1,0,1.289Zm-9.665-3.222a.644.644,0,0,1,.644-.644h6.443a.644.644,0,1,1,0,1.289h-6.443A.644.644,0,0,1,153.581,187.756Zm9.665-1.933h-9.02a.644.644,0,0,1,0-1.289h9.02a.644.644,0,0,1,0,1.289Z" transform="translate(-133.432 -160.825)" fill="#c10416"/>
  </g>
</svg>
