<svg xmlns="http://www.w3.org/2000/svg" width="19.924" height="19.922" viewBox="0 0 19.924 19.922">
  <g id="interview" transform="translate(0 -0.023)">
    <g id="Group_191" data-name="Group 191" transform="translate(4.812 4.834)">
      <g id="Group_190" data-name="Group 190">
        <path id="Path_160" data-name="Path 160" d="M128.8,123.646a5.15,5.15,0,1,0,5.15,5.15A5.156,5.156,0,0,0,128.8,123.646Z" transform="translate(-123.646 -123.646)" fill="#c10416"/>
      </g>
    </g>
    <g id="Group_193" data-name="Group 193" transform="translate(8.031 0.023)">
      <g id="Group_192" data-name="Group 192">
        <path id="Path_161" data-name="Path 161" d="M209.668.588a1.932,1.932,0,1,0,0,2.732A1.934,1.934,0,0,0,209.668.588Z" transform="translate(-206.37 -0.023)" fill="#c10416"/>
      </g>
    </g>
    <g id="Group_195" data-name="Group 195" transform="translate(2.352 2.374)">
      <g id="Group_194" data-name="Group 194">
        <path id="Path_162" data-name="Path 162" d="M62.37,60.438A1.932,1.932,0,1,0,64.3,62.37,1.934,1.934,0,0,0,62.37,60.438Z" transform="translate(-60.438 -60.438)" fill="#c10416"/>
      </g>
    </g>
    <g id="Group_197" data-name="Group 197" transform="translate(0 8.053)">
      <g id="Group_196" data-name="Group 196">
        <path id="Path_163" data-name="Path 163" d="M3.3,206.937a1.931,1.931,0,1,0,0,2.732A1.934,1.934,0,0,0,3.3,206.937Z" transform="translate(0 -206.372)" fill="#c10416"/>
      </g>
    </g>
    <g id="Group_199" data-name="Group 199" transform="translate(2.352 13.73)">
      <g id="Group_198" data-name="Group 198">
        <path id="Path_164" data-name="Path 164" d="M62.37,352.258A1.932,1.932,0,1,0,64.3,354.19,1.934,1.934,0,0,0,62.37,352.258Z" transform="translate(-60.438 -352.258)" fill="#c10416"/>
      </g>
    </g>
    <g id="Group_201" data-name="Group 201" transform="translate(8.031 16.082)">
      <g id="Group_200" data-name="Group 200">
        <path id="Path_165" data-name="Path 165" d="M209.669,413.261a1.931,1.931,0,1,0,0,2.732A1.919,1.919,0,0,0,209.669,413.261Z" transform="translate(-206.372 -412.695)" fill="#c10416"/>
      </g>
    </g>
    <g id="Group_203" data-name="Group 203" transform="translate(13.708 13.73)">
      <g id="Group_202" data-name="Group 202">
        <path id="Path_166" data-name="Path 166" d="M354.19,352.258a1.932,1.932,0,1,0,1.932,1.932A1.934,1.934,0,0,0,354.19,352.258Z" transform="translate(-352.258 -352.258)" fill="#c10416"/>
      </g>
    </g>
    <g id="Group_205" data-name="Group 205" transform="translate(16.06 8.053)">
      <g id="Group_204" data-name="Group 204">
        <path id="Path_167" data-name="Path 167" d="M416.016,206.937a1.932,1.932,0,1,0,.566,1.366A1.934,1.934,0,0,0,416.016,206.937Z" transform="translate(-412.719 -206.372)" fill="#c10416"/>
      </g>
    </g>
    <g id="Group_207" data-name="Group 207" transform="translate(13.708 2.374)">
      <g id="Group_206" data-name="Group 206">
        <path id="Path_168" data-name="Path 168" d="M354.19,60.438a1.932,1.932,0,1,0,1.932,1.932A1.934,1.934,0,0,0,354.19,60.438Z" transform="translate(-352.258 -60.438)" fill="#c10416"/>
      </g>
    </g>
  </g>
</svg>
