<svg xmlns="http://www.w3.org/2000/svg" width="22.686" height="18.04" viewBox="0 0 22.686 18.04">
  <g id="Group_1682" data-name="Group 1682" transform="translate(-553.935 -2704.66)">
    <path id="Path_2790" data-name="Path 2790" d="M570.495,2722.389l-8.884-4.861v-7.7l8.884-4.861Z" fill="none" stroke="#6d6f72" stroke-linecap="round" stroke-linejoin="round" stroke-width="0.622"/>
    <path id="Path_2791" data-name="Path 2791" d="M560.689,2717.319h-3.277a3.166,3.166,0,0,1-2.239-.928h0a3.166,3.166,0,0,1-.927-2.238v-.946a3.169,3.169,0,0,1,.927-2.239h0a3.17,3.17,0,0,1,2.239-.927h3.277" fill="none" stroke="#6d6f72" stroke-linecap="round" stroke-linejoin="round" stroke-width="0.622"/>
    <path id="Path_2792" data-name="Path 2792" d="M575.176,2708.756a11.257,11.257,0,0,1,0,9.848" fill="none" stroke="#6d6f72" stroke-linecap="round" stroke-linejoin="round" stroke-width="0.622"/>
    <path id="Path_2793" data-name="Path 2793" d="M573.516,2710.415a9.043,9.043,0,0,1,0,6.53" fill="none" stroke="#6d6f72" stroke-linecap="round" stroke-linejoin="round" stroke-width="0.622"/>
    <path id="Path_2794" data-name="Path 2794" d="M571.772,2712.159a6.924,6.924,0,0,1,0,3.041" fill="none" stroke="#6d6f72" stroke-linecap="round" stroke-linejoin="round" stroke-width="0.622"/>
  </g>
</svg>
