<svg xmlns="http://www.w3.org/2000/svg" width="19.811" height="17.697" viewBox="0 0 19.811 17.697">
  <g id="plan_1_" data-name="plan (1)" transform="translate(0 0)">
    <path id="Path_177" data-name="Path 177" d="M243.444,83.553l2.465-2.465-2.465-2.465.4-.4a1.763,1.763,0,0,0-2.493-2.493l-.4.4-2.465-2.465-.728.728v1.15a2.925,2.925,0,0,1,0,5.691V84.8h-2.134l-.425.425,3.287,3.287,2.465-2.465.342.342a1.763,1.763,0,0,0,2.493-2.493Zm0,0" transform="translate(-226.099 -70.814)" fill="#c10416"/>
    <path id="Path_178" data-name="Path 178" d="M10.5,12.823V9.336h.484a1.763,1.763,0,1,0,0-3.525H10.5V2.325H7.011V1.763a1.763,1.763,0,1,0-3.525,0v.562H0V5.811H.484A1.765,1.765,0,0,1,2.212,7.226a.6.6,0,0,1,0,.7A1.766,1.766,0,0,1,.484,9.336H0v3.487H3.486v-.562a1.763,1.763,0,0,1,3.525,0v.562Zm0,0" fill="#c10416"/>
  </g>
</svg>
