<svg xmlns="http://www.w3.org/2000/svg" width="18.511" height="18.51" viewBox="0 0 18.511 18.51">
  <g id="Group_1121" data-name="Group 1121" transform="translate(-311.102 -5187.278)">
    <rect id="Rectangle_1041" data-name="Rectangle 1041" width="0.597" height="0.597" transform="translate(329.016 5205.191)" fill="#040505"/>
    <path id="Path_2022" data-name="Path 2022" d="M329.613,5193.846v-.6h-5.971v.6h.6v2.687h-.6v.6h.6v2.687h-.926l-1.131-10.748h.564v-1.791h-3.583v1.791h.564l-1.131,10.748h-.488l-4.63-5.5A1.191,1.191,0,1,0,312,5195.6v9.6h-.9v.6h17.316v-.6h-.6v-2.985h1.792v-2.389h-.6v-2.687h.6v-.6h-.6v-2.687Zm-7.5.3.223,2.12-1.908-2.12Zm-.108-1.02-1.376-1.966h1.17Zm-1.927-1.713,1.494,2.135h-1.719Zm1.7,5.121h-2.235l.234-2.223Zm.653.6.265,2.512-2.512-2.512Zm-2.67-8.658v-.6h2.389v.6H319.76Zm1.822.6.157,1.493h-1.568l.157-1.493Zm-2.116,8.189,2.559,2.559H319.2Zm-3.43,2.559-.41-.6h1.2l.5.6Zm-2.719-4.762.579.687-.86-.368A1.2,1.2,0,0,0,313.317,5195.055Zm1.434,1.7.243.288-.317.794-1.085-1.579Zm.679.806.892,1.059h-1.107l-.132-.192Zm-3.731-3.121a.6.6,0,1,1,.6.6A.6.6,0,0,1,311.7,5194.443Zm.9,1.423,1.815,2.64,0,.006.009,0,.9,1.3h-2.12v2.389h1.791v2.985H312.6Zm11.644,9.325h-5.673v-2.985h5.673Zm-6.27-1.194h-.3v.6h.3v.6h-2.388v-.6h1.492v-.6h-1.492v-1.791h2.388Zm9.255,0h-.3v.6h.3v.6h-2.388v-.6h1.493v-.6h-1.493v-1.791h2.388Zm1.792-2.389H313.789v-1.194h15.227Zm-.6-1.791h-3.582v-2.687h3.582Zm0-3.284h-3.582v-2.687h3.582Z" fill="#040505"/>
    <rect id="Rectangle_1042" data-name="Rectangle 1042" width="0.597" height="0.597" transform="translate(325.433 5194.443)" fill="#040505"/>
    <rect id="Rectangle_1043" data-name="Rectangle 1043" width="0.597" height="0.597" transform="translate(326.627 5194.443)" fill="#040505"/>
    <rect id="Rectangle_1044" data-name="Rectangle 1044" width="0.597" height="0.597" transform="translate(327.224 5198.623)" fill="#040505"/>
    <rect id="Rectangle_1045" data-name="Rectangle 1045" width="0.597" height="0.597" transform="translate(326.03 5198.623)" fill="#040505"/>
  </g>
</svg>
