<svg id="news_2_" data-name="news (2)" xmlns="http://www.w3.org/2000/svg" width="17.229" height="17.229" viewBox="0 0 17.229 17.229">
  <g id="Group_172" data-name="Group 172" transform="translate(0 0)">
    <path id="Path_107" data-name="Path 107" d="M16.613,4.307H13.537V.615A.615.615,0,0,0,12.922,0H.615A.615.615,0,0,0,0,.615V14.768a2.461,2.461,0,0,0,2.461,2.461H14.768a2.461,2.461,0,0,0,2.461-2.461V4.922A.615.615,0,0,0,16.613,4.307ZM4.922,3.077H8.614a.615.615,0,1,1,0,1.231H4.922a.615.615,0,1,1,0-1.231ZM10.46,14.768H3.077a.615.615,0,1,1,0-1.231H10.46a.615.615,0,0,1,0,1.231Zm0-2.461H3.077a.615.615,0,1,1,0-1.231H10.46a.615.615,0,0,1,0,1.231Zm0-2.461H3.077a.615.615,0,1,1,0-1.231H10.46a.615.615,0,0,1,0,1.231Zm0-2.461H3.077a.615.615,0,1,1,0-1.231H10.46a.615.615,0,0,1,0,1.231ZM16,14.768a1.231,1.231,0,0,1-2.461,0V5.538H16v9.23Z" transform="translate(0 0)" fill="#c10416"/>
  </g>
</svg>
