<svg xmlns="http://www.w3.org/2000/svg" width="21.853" height="25.097" viewBox="0 0 21.853 25.097">
  <g id="Group_1872" data-name="Group 1872" transform="translate(-328.245 -2735.995)">
    <g id="Group_1871" data-name="Group 1871">
      <g id="Group_1869" data-name="Group 1869">
        <path id="Path_3082" data-name="Path 3082" d="M338.168,2737.537a5.986,5.986,0,0,0-8.382,8.381Z" fill="none" stroke="#ae0721" stroke-linecap="round" stroke-linejoin="round" stroke-width="0.678"/>
        <path id="Path_3083" data-name="Path 3083" d="M330.982,2747.114a5.986,5.986,0,0,0,8.382-8.381Z" fill="none" stroke="#ae0721" stroke-linecap="round" stroke-linejoin="round" stroke-width="0.678"/>
      </g>
      <g id="Group_1870" data-name="Group 1870">
        <path id="Path_3084" data-name="Path 3084" d="M337.808,2749.4a11.568,11.568,0,0,0,3.84-3.84" fill="none" stroke="#ae0721" stroke-linecap="round" stroke-linejoin="round" stroke-width="0.678"/>
      </g>
      <path id="Path_3085" data-name="Path 3085" d="M341.648,2745.559l5.588,7.764c.459.637-1.027,2.122-1.663,1.664l-7.764-5.588" fill="none" stroke="#ae0721" stroke-linecap="round" stroke-linejoin="round" stroke-width="0.678"/>
      <circle id="Ellipse_75" data-name="Ellipse 75" cx="0.993" cy="0.993" r="0.993" transform="translate(340.654 2748.405)" fill="none" stroke="#ae0721" stroke-linecap="round" stroke-linejoin="round" stroke-width="0.678"/>
      <path id="Path_3086" data-name="Path 3086" d="M347.658,2755.565l1.4,1.4a1.912,1.912,0,0,1,0,2.7l-.52.52a1.912,1.912,0,0,1-2.7,0l-7.123-7.124a1.913,1.913,0,0,0-2.7,0h0a1.9,1.9,0,0,0-.547,1.575" fill="none" stroke="#ae0721" stroke-linecap="round" stroke-linejoin="round" stroke-width="0.678"/>
    </g>
    <path id="Path_3087" data-name="Path 3087" d="M338.168,2737.537l1.2,1.2-8.382,8.382-1.2-1.2" fill="none" stroke="#ae0721" stroke-linecap="round" stroke-linejoin="round" stroke-width="0.678"/>
  </g>
</svg>
