<svg xmlns="http://www.w3.org/2000/svg" width="7.536" height="9.189" viewBox="0 0 7.536 9.189">
  <path id="Path_3013" data-name="Path 3013" d="M437.177,2981.607c-.322.026-.737.137-.426-.5a1.055,1.055,0,0,0-.18-1.125,2.192,2.192,0,0,1-.551-1.577c-.663.951-1.569,1.825-.827,3.159a2.762,2.762,0,0,1-2.238-.418,3.194,3.194,0,0,1-.817-3.035c.038-.092.141-.211.222-.218.153-.013.21.136.288.261.164.265.327.681.684.574.425-.129.353-.59.344-.959a.908.908,0,0,0-.02-.34c-.461-1.016-.851-2.025.169-2.964-.017-.008-.023-.013,0,0h0a.178.178,0,0,0,.042.018c.369.117-.128.822.453.727.438-.071.687-.481.845-.872a2.147,2.147,0,0,0,.035-1.894,2.186,2.186,0,0,1,1.23,2.428c-.059.295-.444.67.028.844.365.135.57-.253.706-.581.03-.074.109-.128.209-.239a6.172,6.172,0,0,1,2.146,3.457A2.879,2.879,0,0,1,437.177,2981.607Z" transform="translate(-432.019 -2972.442)" fill="#5a5b5e"/>
</svg>
