<svg xmlns="http://www.w3.org/2000/svg" width="13.302" height="13.071" viewBox="0 0 13.302 13.071">
  <g id="Group_1822" data-name="Group 1822" transform="translate(-301.755 -2969.994)">
    <path id="Path_3006" data-name="Path 3006" d="M304.518,2977.438c-.145.179-.03.559-.05.85-.012.191.049.247.241.242.53-.013,1.06.007,1.589-.01.221-.007.284.054.277.276-.016.577-.005,1.154-.005,1.755a1.9,1.9,0,0,0,.505-.4,2.024,2.024,0,0,0,1.051.611c0-.658.011-1.3-.005-1.939-.006-.227.039-.306.287-.3.89.017,1.781.02,2.671,0,.274-.007.306.09.3.323-.015.635-.006,1.271-.006,1.951a1.951,1.951,0,0,0,.588-.31c.359-.429.627-.211.893.108.054-.058.067-.066.067-.073,0-.574.018-1.149,0-1.724-.007-.229.068-.282.281-.271.338.017.676.007,1.015,0,.257,0,.6.087.749-.043.176-.154.023-.509.062-.773.043-.291-.075-.342-.347-.341-3.111.011-6.222.005-9.332.01C305.065,2977.378,304.669,2977.249,304.518,2977.438Z" fill="#5a5b5e"/>
    <path id="Path_3007" data-name="Path 3007" d="M305.143,2974.32c.017.6.006,1.194.006,1.79,0,.453,0,.467.46.448.256-.011.413.021.355.329-.017.089-.007.12.138.127.792.036,1.584.025,2.376.017.465-.005.932.008,1.4-.028.243-.019.311-.012.276-.239s.1-.208.24-.2a2.8,2.8,0,0,1,.3,0c.223.032.28-.055.276-.275q-.022-1.013,0-2.026c0-.217-.05-.283-.275-.279-.878.014-1.756.006-2.634.006s-1.735.013-2.6-.008C305.185,2973.977,305.136,2974.07,305.143,2974.32Zm4.69.272c.336.009.109.253.192.331-.021.176.083.375-.223.362s-.167-.232-.18-.362S309.528,2974.584,309.833,2974.592Zm-1.185,0c.334,0,.189.221.219.338.009.2.053.366-.247.362-.332-.005-.206-.217-.22-.364C308.385,2974.752,308.347,2974.585,308.648,2974.589Zm-1.4.334c.007-.169-.06-.38.228-.321.1.019.318-.064.227.143-.076.176.287.528-.222.54C307.128,2975.293,307.282,2975.057,307.246,2974.923Zm-.959-.334c.349,0,.158.243.218.342-.013.18.068.351-.227.359-.344.008-.234-.206-.249-.372C306.012,2974.729,306,2974.588,306.287,2974.589Z" fill="#5a5b5e"/>
    <path id="Path_3008" data-name="Path 3008" d="M311.365,2977c.2.025.423.082.581-.156.23-.346.489-.672.734-1.009.1-.131.183-.162.293-.011.254.345.534.671.764,1.03.155.241.38.141.562.157.1.009.03-.209.051-.323a.684.684,0,0,0,0-.2c-.087-.688-.18-1.376-.266-2.064-.069-.546-.1-1.1-.193-1.642-.03-.171-.1-.492.052-.518.286-.051.188-.215.211-.378-.062-.09.112-.333-.127-.316-.309.022-.273-.14-.29-.339a3.071,3.071,0,0,1-.061-.525c.017-.183-.056-.2-.231-.172-.253.044-.546.075-.447-.357.028-.119-.018-.177-.159-.181-.163,0-.2.067-.176.2.044.265-.042.435-.328.34-.362-.122-.324.128-.348.328a1.3,1.3,0,0,1-.008.3c-.061.164.017.409-.328.413-.245,0-.107.292-.137.452-.021.118-.012.231.164.2.12-.018.189.014.169.162q-.139,1.014-.267,2.029c-.094.765-.185,1.531-.265,2.3C311.3,2976.811,311.225,2976.983,311.365,2977Zm2.311-2.431.248,2.146c-.306-.409-.536-.752-.805-1.061a.256.256,0,0,1,0-.394C313.289,2975.05,313.459,2974.837,313.676,2974.569Zm-.128-.213c-.233.3-.464.612-.706.932-.248-.32-.461-.612-.694-.888-.092-.107-.1-.158-.006-.271.236-.273.45-.566.694-.878q.375.48.751.963C313.635,2974.275,313.582,2974.312,313.548,2974.356Zm-.906-1.765c-.071-.116-.292-.187-.218-.323.057-.1.266-.016.41-.039.136.024.344-.066.4.04.077.142-.146.231-.214.364-.091.178-.255.295-.364-.014A.154.154,0,0,0,312.642,2972.591Zm.953,1.235c-.675-.623-.692-.748-.153-1.341Zm-1.217-2.445c.057-.139-.086-.372.082-.417a1.343,1.343,0,0,1,.728,0c.153.05.124.318.14.49s-.145.09-.226.094c-.255.01-.511,0-.75,0C312.3,2971.466,312.358,2971.429,312.378,2971.381Zm-.107,1.124c.491.617.476.709-.221,1.355C312.173,2973.4,312.119,2972.942,312.271,2972.5ZM312,2974.6a6.305,6.305,0,0,1,.637.769c.1.1-.016.222-.072.3-.236.324-.493.632-.742.946l-.057-.015C311.843,2975.941,311.919,2975.286,312,2974.6Z" fill="#5a5b5e"/>
    <path id="Path_3009" data-name="Path 3009" d="M315.012,2981.91c-.058.048-.1.085-.138.113s-.1.051-.142.081a1.69,1.69,0,0,1-1.992.056.558.558,0,0,0-.764.011,1.76,1.76,0,0,1-1.992-.078c-.2-.19-.31-.166-.516-.014a1.71,1.71,0,0,1-2.2-.059c-.175-.15-.266-.071-.39.02a1.711,1.711,0,0,1-1.5.349,2.06,2.06,0,0,1-.924-.481,1.112,1.112,0,0,1,.016.475.383.383,0,0,0,.274.444,2.376,2.376,0,0,0,2.146-.055c.09-.045.17-.163.291-.084a2.274,2.274,0,0,0,2.45.032c.063-.032.106-.089.2-.026a2.206,2.206,0,0,0,2.388.039.245.245,0,0,1,.291-.01,2.155,2.155,0,0,0,1.857.222c.673-.22.674-.217.66-.914C315.027,2982,315.02,2981.972,315.012,2981.91Z" fill="#5a5b5e"/>
    <path id="Path_3010" data-name="Path 3010" d="M304.736,2981.571a2.463,2.463,0,0,0,2.24-.113c.094-.053.114-.046.2,0a2.407,2.407,0,0,0,2.412.014c.112-.06.178-.081.275-.022a2.273,2.273,0,0,0,2.369.018c.115-.058.188-.075.274-.012a2.265,2.265,0,0,0,1.519.313c.769-.032,1.075-.378.963-1.069-.021,0-.051-.01-.062,0a1.876,1.876,0,0,1-2.487,0c-.11-.1-.138-.02-.2.033a1.868,1.868,0,0,1-2.41,0c-.09-.074-.123-.1-.225-.007a1.851,1.851,0,0,1-2.431-.012c-.1-.082-.121-.06-.2.007a1.869,1.869,0,0,1-1.267.447,2.345,2.345,0,0,1-1.275-.48.557.557,0,0,1,.032.422C304.385,2981.384,304.528,2981.486,304.736,2981.571Z" fill="#5a5b5e"/>
    <path id="Path_3011" data-name="Path 3011" d="M304.744,2974.238c-.21-.283-.449-.546-.674-.818-.277-.335-.554-.671-.862-1.046a.485.485,0,0,0,.539-.326c.052-.125.1-.133.211-.039.567.473,1.16.915,1.714,1.4a.993.993,0,0,0,.993.274c-.168-.156-.3-.29-.439-.407-.829-.676-1.665-1.343-2.49-2.024a.8.8,0,0,0-1.068-.025.761.761,0,0,0-.074,1.047c.481.617.984,1.217,1.479,1.824.227.278.456.554.684.831C304.781,2974.682,304.894,2974.44,304.744,2974.238Zm-1.818-2.439c-.012-.144.1-.235.273-.248a.264.264,0,0,1,.255.282.252.252,0,0,1-.281.263C302.975,2972.1,302.937,2971.926,302.926,2971.8Z" fill="#5a5b5e"/>
    <path id="Path_3012" data-name="Path 3012" d="M303.1,2976.832c-.241-.137-.238-.135-.073-.361a.237.237,0,0,0,.021-.13c0-.214,0-.428,0-.642,0-.081.005-.159-.116-.152-.247.016-.223-.161-.223-.32,0-.71,0-1.42,0-2.129,0-.149.007-.294-.2-.373,0,.861,0,1.7,0,2.55,0,.089.061.257-.061.259-.337,0-.192.241-.2.382-.011.186-.085.5.033.541.268.094.151.267.156.4.006.171.019.26.23.255a.362.362,0,0,1,.377.268.469.469,0,0,1-.163.541.452.452,0,0,1-.673-.218c-.1-.2-.241-.118-.367-.118s-.078.121-.069.184a.96.96,0,0,0,.824.688.977.977,0,0,0,.911-.764A.825.825,0,0,0,303.1,2976.832Z" fill="#5a5b5e"/>
  </g>
</svg>
