<svg xmlns="http://www.w3.org/2000/svg" width="11.761" height="11.545" viewBox="0 0 11.761 11.545">
  <path id="Path_3005" data-name="Path 3005" d="M376.976,2981.441a.5.5,0,0,0-.332-.507.237.237,0,0,1-.2-.274q0-1.12,0-2.242a.287.287,0,0,1,.094-.26c.565-.455.484-.995-.194-1.248-1.088-.406-2.19-.78-3.267-1.215-.3-.121-.689-.109-.862-.516a1.089,1.089,0,0,0-1.48-.562.558.558,0,0,1-.47.018c-.7-.262-1.406-.524-2.108-.791-.214-.081-.38-.18-.185-.451a3.265,3.265,0,0,0,.208-.461.559.559,0,0,0,.03-.518c-.175-.407-.321-.827-.467-1.246-.062-.176-.152-.14-.27-.073a3.6,3.6,0,0,0-1.078.928,6.239,6.239,0,0,0-1.155,4.441,4.517,4.517,0,0,0,.129.622.149.149,0,0,0,.154.137,1.651,1.651,0,0,0,1.1-.767c.127-.314.253-.628.4-.933.294-.615.3-.621.925-.4s1.228.457,1.843.686c.2.074.3.144.208.41-.312.911-.58,1.836-.868,2.755-.253.807-.538,1.606-.751,2.423-.085.325-.21.406-.516.388-.446-.024-.447-.006-.447.438a.655.655,0,0,1,0,.1c-.037.2.044.259.248.254.593-.016,1.187-.006,1.78-.006,1.759,0,3.517,0,5.275,0,.092,0,.252.082.272-.08a1.409,1.409,0,0,0-.014-.651c-.057-.143-.3-.066-.457-.049-.347.041-.506-.095-.512-.436,0-.04-.032-.078-.044-.119-.445-1.432-.888-2.864-1.345-4.339,1.185.449,2.327.89,3.478,1.306.164.06.155.137.155.252,0,.692,0,1.385,0,2.077,0,.2-.01.334-.234.421a.537.537,0,0,0-.3.36,4.218,4.218,0,0,0-.042,1.228,4.529,4.529,0,0,0,.878.034c.076,0,.155-.008.23,0,.168.023.2-.056.2-.206C376.969,2982.056,376.973,2981.748,376.976,2981.441Zm-4.957-4.125c.193.616.348,1.112.526,1.682a10.342,10.342,0,0,0-.875-.765c-.272-.19-.208-.308-.006-.483A3.559,3.559,0,0,0,372.019,2977.316Zm-.824-2.264a.628.628,0,0,1,.571.616.618.618,0,0,1-.547.635.626.626,0,1,1-.024-1.251Zm-.744,1.966c.058-.224.088-.416.421-.22a.948.948,0,0,0,.728-.024c.059-.019.185-.195.244.025.038.14.19.258.031.426-.2.215-.478.343-.648.587a7.546,7.546,0,0,1-.65-.54C370.487,2977.192,370.42,2977.137,370.451,2977.018Zm-.107.419.638.536a12.683,12.683,0,0,1-1.078.96A11.725,11.725,0,0,1,370.344,2977.437Zm-.864,2.712c.149-.461.157-.461.577-.217.283.164.564.334.885.526l-1.9,1.12C369.2,2981.081,369.33,2980.612,369.48,2980.149Zm-.238,1.625c.652-.389,1.261-.755,1.874-1.116.033-.019.06-.073.133-.029.6.372,1.207.734,1.886,1.145Zm3.581-1.875c.168.543.342,1.085.533,1.686l-1.879-1.108a9.444,9.444,0,0,1,1.159-.715C372.765,2979.681,372.792,2979.8,372.823,2979.9Zm-.179-.457c-.482.285-.926.533-1.35.81a.173.173,0,0,1-.216,0,12.412,12.412,0,0,0-1.121-.664c-.117-.061-.254-.134-.03-.308.444-.344.845-.742,1.264-1.119Zm3.416-1.839c0-.162.113-.249.3-.245.15-.014.228.052.227.226s-.077.289-.234.295A.273.273,0,0,1,376.06,2977.6Z" transform="translate(-365.218 -2971.04)" fill="#5a5b5e"/>
</svg>
