<svg xmlns="http://www.w3.org/2000/svg" width="22.786" height="22.477" viewBox="0 0 22.786 22.477">
  <g id="Group_1122" data-name="Group 1122" transform="translate(-308.976 -5227.717)">
    <path id="Path_2023" data-name="Path 2023" d="M327.159,5233.611l-3.85-.349v-5.545h-.735v6.216l4.236.385,4.217,4.568v3.07l-1.878,3.447-3.155-4.416.256-.255.475.475.519-.519-.692-.693-1.166-2.331-3.179-.353v-3.05l-.854-2.134h-1.968l-.854,2.135v3.051l-3.179.351L314.187,5240l-.693.693.519.52.476-.476.255.255-3.154,4.415-1.879-3.446v-3.07l4.217-4.568,4.236-.385v-6.216h-.735v5.545l-3.85.349-4.6,4.988v3.545l2.235,4.094,1.149,2.682,2.124,1.274,2.835-1.62,1.518-2.277,1.165-2.7v-2.913l-2.573-.858-2.106.7-.387-.387.895-1.789,3.088-.344h2.9l3.089.344.9,1.789-.387.387-2.107-.7-2.572.858v2.913l1.132,2.642,1.55,2.336,2.835,1.62,2.124-1.274,1.134-2.651,2.25-4.125V5238.6ZM316.8,5244.164l1.041,1.561h-1.4l-2.726-2.044.648-.908Zm-.79,2.154.506,1.517-1.487-.247-2.392-2.392.654-.916Zm-.867,2.033.836.14-.975.557Zm1.689-1.89h1.009l-.672,1.008Zm.855-2.292,1.348-.192-.578,1.348Zm-.087-2.159,1.251,1.25-1.721.246-2.334-1.333.572-.8Zm.847-.193.816-.327v1.143Zm-6.484,4.323.241-.338,2.249,2.249-.227,1.134-1.288-.774Zm6.6-5.161-.789.316-1.31-.375.962-.32Zm.7-3.707V5234.4l.616-1.541h.972l.617,1.541v2.871l-1.1,0Zm3.021,4.545-.816.816v-1.143Zm.846.193,2.232-.638.571.8-2.333,1.333-1.721-.245Zm.8,2.154,2.433-1.391.648.908-2.726,2.044h-1.395Zm-.032,2.3-.337,1.008-.672-1.008Zm1.689,1.89.14.7-.976-.557Zm.115-.764-1.487.248.505-1.517,2.719-2.039.654.916Zm-1.435-6.666-1.309.374-.79-.316,1.137-.379Zm-2.571,3.055,1.348.193-.771,1.155Zm6.1,4.436-1.288.773-.227-1.133,2.249-2.25.24.337Z" fill="#040505"/>
    <rect id="Rectangle_1046" data-name="Rectangle 1046" width="0.735" height="0.735" transform="translate(320.002 5234.332)" fill="#040505"/>
    <rect id="Rectangle_1047" data-name="Rectangle 1047" width="0.735" height="0.735" transform="translate(320.002 5235.802)" fill="#040505"/>
  </g>
</svg>
